<svg width="260" height="256" viewBox="0 0 260 256" fill="none" xmlns="http://www.w3.org/2000/svg">
<path d="M190.003 254.42C227.79 254.42 258.422 223.788 258.422 186.001C258.422 148.214 227.79 117.582 190.003 117.582C152.216 117.582 121.584 148.214 121.584 186.001C121.584 223.788 152.216 254.42 190.003 254.42Z" fill="#FFE7D6"/>
<mask id="mask0_3041_18009" style="mask-type:luminance" maskUnits="userSpaceOnUse" x="121" y="117" width="138" height="138">
<path d="M190.003 254.42C227.79 254.42 258.422 223.788 258.422 186.001C258.422 148.214 227.79 117.582 190.003 117.582C152.216 117.582 121.584 148.214 121.584 186.001C121.584 223.788 152.216 254.42 190.003 254.42Z" fill="white"/>
</mask>
<g mask="url(#mask0_3041_18009)">
<path d="M218.885 157.142C217.226 157.78 215.644 158.601 214.167 159.589C212.342 157.467 210.08 155.763 207.536 154.595C204.992 153.426 202.226 152.819 199.427 152.816C189.747 152.816 181.687 159.976 180.23 169.274C177.303 167.404 174.068 166.07 170.674 165.333C170.674 164.771 170.89 159.976 173.031 155.689C173.277 155.195 173.563 154.721 173.888 154.274C173.888 154.23 173.888 154.191 173.931 154.191C176.111 149.923 179.494 146.388 183.661 144.021C187.828 141.655 192.597 140.561 197.379 140.875C202.161 141.189 206.746 142.897 210.568 145.788C214.39 148.678 217.281 152.626 218.885 157.142Z" fill="#FFF9F5"/>
<path d="M158.719 152.816C163.632 152.834 168.494 153.81 173.033 155.69C170.893 159.976 170.676 164.771 170.676 165.333C157.006 162.458 143.679 170.128 140.123 180.718C133.992 198.93 147.406 210.457 153.664 205.786C151.701 204.029 150.299 201.734 149.632 199.186C148.512 194.889 149.142 190.324 151.384 186.492C153.625 182.659 157.296 179.872 161.589 178.743C166.959 177.343 172.665 178.132 177.453 180.938C182.241 183.743 185.719 188.334 187.124 193.702C187.914 196.692 188.161 199.799 187.854 202.876C187.32 208.24 185.15 213.309 181.638 217.397C180.204 219.046 178.579 220.518 176.797 221.782C174.26 223.55 171.431 224.855 168.44 225.638V225.682C165.266 226.53 161.996 226.964 158.711 226.971C148.933 226.89 139.583 222.948 132.698 216.005C125.813 209.062 121.949 199.68 121.949 189.902C121.949 180.123 125.813 170.741 132.698 163.798C139.583 156.855 148.933 152.913 158.711 152.832L158.719 152.816Z" fill="#FFF9F5"/>
<path d="M209.156 221.727C207.555 224.562 205.237 226.926 202.434 228.582C199.63 230.238 196.441 231.128 193.186 231.163C189.93 231.198 186.722 230.376 183.884 228.78C181.047 227.184 178.678 224.87 177.017 222.07L176.803 221.771C178.585 220.507 180.21 219.035 181.644 217.386C182.494 218.781 183.691 219.932 185.118 220.728C186.545 221.523 188.153 221.936 189.786 221.926C191.695 221.926 193.56 221.356 195.142 220.287C196.723 219.219 197.949 217.702 198.662 215.932C201.801 218.452 205.351 220.413 209.156 221.727Z" fill="#FFF9F5"/>
<path d="M198.662 215.943C197.95 217.714 196.724 219.231 195.142 220.299C193.561 221.367 191.696 221.938 189.787 221.937C188.154 221.948 186.545 221.535 185.118 220.74C183.691 219.944 182.495 218.793 181.645 217.398C185.156 213.309 187.326 208.24 187.86 202.877C190.643 207.93 194.159 212.43 198.662 215.943Z" fill="#FFF9F5"/>
<path d="M199.427 152.816C202.226 152.819 204.992 153.426 207.536 154.595C210.08 155.764 212.341 157.467 214.167 159.589C212.443 160.758 210.887 162.156 209.54 163.745L209.326 163.574C206.789 164.1 204.396 165.168 202.309 166.703C200.222 168.239 198.491 170.206 197.234 172.472C195.977 174.737 195.224 177.247 195.025 179.83C194.827 182.413 195.188 185.009 196.084 187.44C191.545 180.765 187.129 173.945 181.383 170.004C180.993 169.746 180.609 169.488 180.225 169.274C181.687 159.976 189.747 152.816 199.427 152.816Z" fill="#FFF9F5"/>
<path d="M219.14 194.899C222.867 195.548 226.7 194.69 229.796 192.513C232.891 190.337 234.996 187.02 235.647 183.293C235.819 182.445 235.865 181.575 235.781 180.714H235.819C244.862 188.944 236.552 207.795 218.895 206.294C208.696 205.441 202.31 196.612 196.094 187.466V187.422C195.198 184.991 194.837 182.396 195.035 179.812C195.234 177.229 195.987 174.719 197.244 172.454C198.501 170.188 200.232 168.221 202.319 166.685C204.406 165.15 206.799 164.083 209.336 163.557L209.55 163.727C207.025 166.721 205.34 170.332 204.668 174.191C204.255 176.501 204.303 178.87 204.807 181.162C205.311 183.454 206.263 185.624 207.607 187.547C208.952 189.471 210.662 191.111 212.641 192.372C214.62 193.634 216.828 194.492 219.14 194.899Z" fill="#FFF9F5"/>
<path d="M230.585 156.118C239.022 157.642 246.583 162.27 251.78 169.089C256.976 175.908 259.432 184.426 258.664 192.965C257.896 201.505 253.959 209.447 247.629 215.229C241.298 221.012 233.033 224.215 224.459 224.209C218.713 224.209 213.66 223.358 209.157 221.728C205.352 220.418 201.802 218.462 198.662 215.946C194.159 212.433 190.643 207.932 187.86 202.879C188.168 199.802 187.921 196.695 187.13 193.705C185.726 188.337 182.247 183.745 177.459 180.94C172.671 178.135 166.966 177.346 161.596 178.745C157.302 179.875 153.632 182.662 151.39 186.494C149.148 190.327 148.519 194.892 149.639 199.188C150.305 201.737 151.707 204.032 153.67 205.789C147.413 210.459 133.998 198.933 140.129 180.721C143.686 170.131 157.013 162.46 170.683 165.336C174.076 166.073 177.312 167.407 180.239 169.277C180.625 169.496 181.012 169.752 181.397 170.007C187.138 173.948 191.554 180.768 196.098 187.443V187.486C202.314 196.619 208.7 205.448 218.898 206.315C236.556 207.816 244.866 188.964 235.823 180.734H235.784C235.869 181.596 235.823 182.465 235.65 183.313C234.999 187.041 232.895 190.357 229.8 192.534C226.704 194.71 222.871 195.568 219.143 194.92C216.833 194.514 214.625 193.657 212.647 192.397C210.668 191.137 208.957 189.499 207.612 187.577C206.267 185.656 205.314 183.488 204.807 181.197C204.301 178.907 204.251 176.539 204.661 174.229C205.333 170.371 207.018 166.76 209.544 163.765C210.89 162.177 212.447 160.779 214.171 159.61C215.647 158.622 217.23 157.801 218.888 157.163C222.583 155.79 226.579 155.433 230.458 156.131L230.585 156.118Z" fill="#FFF9F5"/>
<path d="M167.602 224.129C162.147 225.614 156.415 225.773 150.885 224.594C145.356 223.414 140.188 220.931 135.813 217.349C131.437 213.768 127.981 209.193 125.733 204.005C123.484 198.817 122.508 193.167 122.885 187.526C123.262 181.884 124.983 176.415 127.902 171.573C130.822 166.731 134.857 162.657 139.67 159.69C144.484 156.724 149.936 154.951 155.574 154.519C161.211 154.086 166.871 155.008 172.08 157.206C172.466 157.369 172.9 157.372 173.289 157.215C173.677 157.058 173.987 156.752 174.15 156.367C174.313 155.981 174.316 155.546 174.159 155.158C174.001 154.77 173.696 154.46 173.31 154.297C167.639 151.906 161.478 150.905 155.342 151.378C149.205 151.85 143.27 153.781 138.031 157.011C132.792 160.241 128.401 164.676 125.223 169.947C122.045 175.217 120.172 181.171 119.76 187.312C119.349 193.452 120.41 199.603 122.857 205.25C125.303 210.898 129.063 215.879 133.824 219.779C138.585 223.68 144.209 226.386 150.228 227.673C156.246 228.96 162.485 228.79 168.425 227.178C168.625 227.124 168.813 227.031 168.977 226.904C169.141 226.778 169.279 226.62 169.382 226.44C169.486 226.261 169.553 226.062 169.579 225.857C169.606 225.651 169.592 225.442 169.538 225.242C169.484 225.042 169.391 224.854 169.265 224.69C169.138 224.526 168.98 224.388 168.801 224.285C168.621 224.181 168.423 224.114 168.217 224.088C168.011 224.061 167.802 224.075 167.602 224.129Z" fill="#3B4E3B"/>
<path d="M229.864 157.666C237.9 159.139 245.095 163.561 250.039 170.065C254.982 176.57 257.317 184.686 256.584 192.823C255.852 200.96 252.105 208.529 246.079 214.046C240.054 219.563 232.184 222.628 224.014 222.642C219.94 222.673 215.881 222.158 211.944 221.11C206.868 219.754 202.156 217.287 198.15 213.888C194.33 210.641 191.245 206.633 188.806 202.109C188.707 201.926 188.573 201.765 188.413 201.634C188.252 201.504 188.067 201.406 187.868 201.347C187.669 201.287 187.461 201.268 187.255 201.289C187.048 201.31 186.848 201.372 186.666 201.47C186.484 201.569 186.322 201.703 186.192 201.863C186.061 202.024 185.963 202.209 185.904 202.408C185.845 202.607 185.825 202.815 185.846 203.021C185.867 203.228 185.929 203.428 186.028 203.61C189.486 210.027 194.248 215.596 200.538 219.547C203.817 221.597 207.38 223.151 211.113 224.159C215.319 225.28 219.656 225.832 224.009 225.802C232.98 225.808 241.628 222.456 248.251 216.406C254.874 210.357 258.993 202.047 259.798 193.112C260.602 184.178 258.033 175.266 252.596 168.131C247.159 160.996 239.249 156.154 230.421 154.558C230.217 154.522 230.008 154.525 229.805 154.569C229.602 154.613 229.41 154.697 229.24 154.815C229.07 154.933 228.924 155.084 228.812 155.258C228.7 155.432 228.623 155.627 228.586 155.831C228.549 156.035 228.553 156.245 228.597 156.447C228.641 156.65 228.724 156.842 228.842 157.012C228.961 157.183 229.111 157.328 229.286 157.441C229.46 157.553 229.655 157.629 229.859 157.666H229.864Z" fill="#3B4E3B"/>
<path d="M207.357 220.97C205.895 223.546 203.789 225.698 201.244 227.214C198.643 228.757 195.678 229.578 192.654 229.594C189.631 229.61 186.657 228.82 184.041 227.304C181.532 225.845 179.437 223.772 177.951 221.279C177.737 220.919 177.389 220.659 176.983 220.556C176.577 220.453 176.147 220.516 175.787 220.73C175.427 220.944 175.167 221.292 175.064 221.698C174.961 222.104 175.024 222.534 175.238 222.894C177 225.848 179.485 228.306 182.459 230.036C185.563 231.833 189.09 232.77 192.676 232.751C196.263 232.732 199.779 231.757 202.864 229.927C205.88 228.13 208.378 225.579 210.111 222.525C210.299 222.162 210.339 221.74 210.222 221.348C210.105 220.956 209.84 220.624 209.484 220.424C209.127 220.223 208.707 220.169 208.311 220.272C207.915 220.375 207.575 220.628 207.362 220.978L207.357 220.97Z" fill="#3B4E3B"/>
<path d="M168.405 227.163C171.93 226.246 175.239 224.642 178.144 222.444C181.048 220.246 183.491 217.496 185.332 214.353C187.173 211.21 188.376 207.735 188.873 204.127C189.369 200.518 189.15 196.848 188.226 193.324C187.483 190.462 186.184 187.775 184.401 185.416C182.618 183.058 180.387 181.074 177.837 179.579C175.286 178.083 172.465 177.106 169.536 176.702C166.608 176.299 163.628 176.477 160.768 177.227C158.438 177.833 156.251 178.892 154.331 180.344C152.411 181.796 150.797 183.612 149.581 185.69C148.364 187.767 147.57 190.063 147.242 192.448C146.915 194.833 147.061 197.258 147.673 199.586C148.168 201.49 149.034 203.276 150.221 204.845C151.407 206.413 152.891 207.732 154.588 208.726C156.285 209.72 158.161 210.37 160.109 210.639C162.057 210.907 164.039 210.789 165.942 210.29C167.503 209.881 168.969 209.169 170.255 208.193C171.54 207.217 172.622 205.998 173.436 204.604C174.25 203.211 174.782 201.67 175.001 200.071C175.22 198.472 175.121 196.845 174.711 195.284C174.03 192.681 172.344 190.455 170.023 189.094C167.701 187.733 164.935 187.349 162.331 188.026C161.486 188.251 160.687 188.621 159.968 189.12C158.929 189.839 158.068 190.785 157.451 191.887C156.832 192.968 156.498 194.189 156.481 195.434C156.48 196.041 156.571 196.645 156.752 197.224C156.943 197.829 157.235 198.398 157.616 198.906C157.74 199.071 157.896 199.211 158.074 199.317C158.253 199.423 158.45 199.492 158.655 199.522C158.861 199.551 159.07 199.54 159.271 199.489C159.472 199.437 159.66 199.347 159.826 199.223C159.992 199.098 160.132 198.943 160.238 198.764C160.344 198.586 160.413 198.389 160.443 198.183C160.472 197.978 160.461 197.769 160.41 197.568C160.358 197.367 160.268 197.178 160.144 197.012C159.976 196.79 159.847 196.541 159.764 196.275C159.68 196.002 159.638 195.719 159.641 195.434C159.647 194.98 159.734 194.531 159.899 194.108C160.17 193.388 160.602 192.738 161.162 192.21C161.715 191.673 162.395 191.285 163.138 191.08C164.933 190.614 166.84 190.878 168.441 191.816C170.041 192.753 171.204 194.287 171.675 196.081C172.026 197.424 172.066 198.83 171.793 200.19C171.519 201.551 170.939 202.832 170.097 203.935C168.863 205.559 167.119 206.721 165.145 207.234C163.644 207.627 162.08 207.721 160.543 207.509C159.005 207.298 157.525 206.785 156.186 206.001C154.847 205.217 153.676 204.176 152.74 202.939C151.803 201.701 151.12 200.291 150.729 198.789C150.225 196.863 150.106 194.856 150.377 192.883C150.649 190.91 151.306 189.01 152.312 187.291C153.318 185.573 154.653 184.069 156.24 182.866C157.827 181.663 159.636 180.785 161.562 180.281C164.021 179.64 166.581 179.489 169.098 179.837C171.615 180.186 174.039 181.026 176.23 182.312C178.422 183.597 180.339 185.301 181.872 187.328C183.405 189.354 184.524 191.662 185.165 194.121C186.811 200.427 185.885 207.128 182.591 212.752C179.298 218.375 173.905 222.461 167.6 224.11C167.397 224.16 167.207 224.25 167.039 224.375C166.872 224.5 166.73 224.656 166.624 224.836C166.517 225.016 166.447 225.215 166.418 225.422C166.389 225.628 166.401 225.839 166.454 226.041C166.507 226.243 166.6 226.433 166.727 226.599C166.853 226.765 167.012 226.904 167.193 227.009C167.374 227.113 167.573 227.18 167.781 227.207C167.988 227.234 168.198 227.219 168.4 227.163H168.405Z" fill="#3B4E3B"/>
<path d="M230.3 154.577C228.925 154.335 227.531 154.212 226.135 154.211C220.527 154.22 215.102 156.203 210.81 159.813C206.518 163.422 203.634 168.427 202.664 173.95C202.467 175.068 202.368 176.201 202.367 177.336C202.374 181.898 203.987 186.312 206.922 189.805C209.857 193.297 213.927 195.646 218.42 196.438C219.335 196.598 220.262 196.679 221.19 196.68C224.914 196.674 228.517 195.357 231.368 192.961C234.218 190.564 236.134 187.24 236.779 183.573C237.075 181.891 237.036 180.168 236.666 178.501C236.295 176.834 235.599 175.257 234.618 173.859C233.637 172.462 232.39 171.271 230.949 170.356C229.507 169.441 227.899 168.819 226.217 168.526C224.832 168.282 223.413 168.313 222.041 168.618C220.668 168.923 219.369 169.496 218.218 170.303C217.067 171.11 216.086 172.136 215.332 173.323C214.577 174.509 214.064 175.833 213.821 177.218C213.73 177.728 213.684 178.246 213.685 178.765C213.687 180.854 214.425 182.875 215.769 184.473C217.112 186.072 218.976 187.147 221.033 187.509C221.394 187.57 221.76 187.601 222.127 187.601C222.963 187.598 223.791 187.446 224.574 187.153C225.721 186.733 226.743 186.028 227.543 185.105C227.942 184.643 228.265 184.12 228.5 183.557C228.744 182.967 228.87 182.336 228.871 181.698C228.871 181.208 228.795 180.722 228.647 180.256C228.52 179.857 228.24 179.524 227.869 179.331C227.497 179.139 227.064 179.101 226.665 179.228C226.266 179.355 225.933 179.635 225.74 180.006C225.548 180.378 225.51 180.811 225.637 181.21C225.688 181.368 225.714 181.532 225.714 181.698C225.706 182.014 225.618 182.323 225.456 182.595C225.13 183.138 224.664 183.584 224.107 183.885C223.503 184.236 222.818 184.426 222.119 184.437C221.935 184.437 221.751 184.422 221.569 184.39C220.244 184.157 219.043 183.464 218.177 182.433C217.312 181.403 216.836 180.101 216.834 178.755C216.834 178.42 216.863 178.086 216.919 177.757C217.226 176.009 218.139 174.426 219.497 173.284C220.854 172.143 222.571 171.515 224.345 171.512C224.786 171.512 225.226 171.551 225.66 171.628C226.935 171.846 228.154 172.315 229.247 173.006C230.34 173.698 231.286 174.599 232.029 175.657C232.772 176.716 233.299 177.911 233.578 179.174C233.857 180.437 233.884 181.742 233.656 183.016C233.137 185.951 231.603 188.612 229.321 190.53C227.04 192.449 224.156 193.505 221.175 193.513C220.43 193.512 219.687 193.447 218.954 193.317C215.193 192.654 211.784 190.689 209.327 187.765C206.869 184.841 205.52 181.145 205.514 177.326C205.517 176.374 205.604 175.425 205.772 174.489C206.614 169.695 209.118 165.351 212.844 162.22C216.571 159.089 221.28 157.37 226.148 157.365C227.358 157.366 228.566 157.472 229.758 157.683C230.171 157.755 230.595 157.661 230.938 157.42C231.281 157.18 231.515 156.813 231.587 156.401C231.66 155.988 231.565 155.564 231.325 155.221C231.085 154.878 230.718 154.645 230.305 154.572L230.3 154.577Z" fill="#3B4E3B"/>
<path d="M174.196 156.431C175.997 152.168 179.044 148.549 182.939 146.048C186.833 143.547 191.393 142.283 196.019 142.419C200.645 142.556 205.122 144.088 208.862 146.814C212.602 149.54 215.431 153.333 216.977 157.695C217.117 158.09 217.408 158.413 217.786 158.593C218.164 158.773 218.598 158.796 218.993 158.656C219.387 158.516 219.71 158.225 219.891 157.847C220.071 157.469 220.093 157.035 219.954 156.64C218.193 151.679 214.975 147.366 210.721 144.266C206.466 141.166 201.374 139.425 196.113 139.269C190.851 139.114 185.665 140.552 181.236 143.396C176.806 146.239 173.339 150.355 171.289 155.203C171.201 155.396 171.152 155.603 171.145 155.815C171.139 156.026 171.175 156.237 171.251 156.434C171.328 156.631 171.443 156.811 171.59 156.962C171.738 157.114 171.914 157.235 172.109 157.317C172.304 157.399 172.513 157.442 172.724 157.441C172.936 157.441 173.145 157.398 173.34 157.316C173.534 157.233 173.71 157.112 173.858 156.96C174.005 156.808 174.12 156.628 174.196 156.431Z" fill="#3B4E3B"/>
<path d="M152.272 204.503C151.951 204.745 151.592 204.93 151.21 205.053C150.811 205.177 150.396 205.239 149.979 205.236C148.821 205.197 147.693 204.858 146.706 204.251C144.963 203.247 143.193 201.455 141.878 198.999C140.562 196.544 139.693 193.439 139.691 189.794C139.717 186.878 140.218 183.986 141.176 181.231C141.907 179.111 143.013 177.139 144.442 175.41C146.771 172.605 149.701 170.36 153.015 168.841C156.575 167.178 160.457 166.315 164.387 166.313C169.545 166.313 174.961 167.801 180.058 171.314C183.238 173.501 186.091 176.73 188.827 180.385C190.873 183.132 192.851 186.124 194.876 189.095C197.917 193.55 201.066 197.963 204.8 201.437C206.632 203.174 208.702 204.642 210.947 205.796C213.255 206.964 215.768 207.675 218.346 207.89C219.043 207.947 219.731 207.975 220.41 207.975C223.302 207.993 226.169 207.432 228.841 206.324C232.379 204.84 235.408 202.359 237.559 199.183C239.547 196.296 240.634 192.886 240.682 189.381C240.689 187.564 240.338 185.763 239.651 184.081C238.941 182.354 237.855 180.807 236.473 179.552C236.16 179.304 235.765 179.183 235.367 179.215C234.969 179.246 234.598 179.428 234.328 179.722C234.059 180.016 233.91 180.402 233.913 180.801C233.917 181.2 234.071 181.583 234.345 181.873C235.385 182.814 236.2 183.975 236.731 185.273C237.254 186.574 237.517 187.966 237.505 189.369C237.488 191.234 237.094 193.076 236.347 194.785C235.11 197.628 233.089 200.061 230.52 201.798C227.828 203.624 224.439 204.787 220.392 204.79C219.807 204.79 219.205 204.764 218.586 204.712C216.649 204.553 214.753 204.059 212.984 203.253C211.44 202.54 209.988 201.642 208.659 200.58C206.255 198.685 204.037 196.237 201.914 193.495C198.726 189.384 195.76 184.631 192.583 180.179C191.038 177.975 189.369 175.861 187.584 173.847C185.876 171.91 183.949 170.179 181.84 168.688C176.212 164.82 170.144 163.13 164.376 163.133C158.564 163.131 152.877 164.821 148.009 167.997C145.733 169.487 143.7 171.317 141.981 173.424C140.314 175.446 139.025 177.752 138.174 180.23C137.107 183.31 136.549 186.543 136.523 189.802C136.523 195.337 138.29 199.938 140.831 203.183C142.003 204.715 143.458 206.008 145.117 206.992C146.583 207.879 148.256 208.364 149.969 208.401C150.711 208.404 151.449 208.292 152.156 208.068C152.877 207.84 153.554 207.491 154.158 207.036C154.323 206.912 154.463 206.756 154.569 206.577C154.674 206.399 154.743 206.201 154.773 205.996C154.802 205.791 154.79 205.582 154.739 205.381C154.687 205.18 154.597 204.992 154.472 204.826C154.348 204.66 154.192 204.52 154.013 204.415C153.835 204.309 153.637 204.24 153.432 204.211C153.227 204.182 153.018 204.193 152.817 204.245C152.616 204.296 152.428 204.387 152.262 204.511L152.272 204.503Z" fill="#3B4E3B"/>
<path d="M171.822 165.384H170.896L171.822 165.399H170.896L171.822 165.415V165.399C171.877 164.067 172.045 162.742 172.323 161.438C172.561 160.273 172.891 159.13 173.31 158.018C173.755 156.824 174.347 155.689 175.072 154.642C175.192 154.472 175.277 154.281 175.323 154.079C175.369 153.876 175.374 153.667 175.339 153.463C175.304 153.258 175.229 153.063 175.118 152.887C175.008 152.712 174.864 152.56 174.694 152.44C174.525 152.32 174.334 152.235 174.131 152.189C173.929 152.144 173.72 152.138 173.515 152.173C173.311 152.208 173.115 152.283 172.94 152.394C172.765 152.505 172.613 152.649 172.493 152.818C171.582 154.129 170.844 155.553 170.298 157.053C169.62 158.902 169.148 160.819 168.89 162.771C168.766 163.632 168.689 164.499 168.66 165.368C168.67 165.777 168.838 166.166 169.128 166.454C169.419 166.742 169.81 166.906 170.219 166.911C170.628 166.917 171.023 166.764 171.321 166.485C171.62 166.205 171.799 165.821 171.82 165.412L171.822 165.384Z" fill="#3B4E3B"/>
<path d="M181.347 169.518C181.873 166.145 183.355 162.993 185.616 160.436C187.878 157.878 190.825 156.022 194.108 155.087C197.391 154.153 200.874 154.178 204.143 155.161C207.413 156.143 210.332 158.042 212.556 160.633C212.691 160.79 212.857 160.919 213.042 161.012C213.227 161.105 213.429 161.161 213.636 161.177C213.843 161.192 214.051 161.166 214.248 161.101C214.445 161.036 214.627 160.933 214.784 160.798C214.942 160.662 215.071 160.497 215.164 160.312C215.257 160.126 215.313 159.925 215.328 159.718C215.344 159.511 215.318 159.303 215.253 159.106C215.188 158.909 215.085 158.726 214.949 158.569C212.33 155.525 208.894 153.294 205.047 152.141C201.199 150.988 197.103 150.961 193.241 152.062C189.378 153.164 185.912 155.348 183.252 158.356C180.592 161.365 178.849 165.073 178.229 169.041C178.191 169.248 178.195 169.461 178.24 169.667C178.286 169.873 178.372 170.068 178.494 170.24C178.617 170.412 178.772 170.558 178.951 170.669C179.131 170.78 179.331 170.854 179.539 170.886C179.748 170.919 179.96 170.909 180.165 170.858C180.37 170.806 180.562 170.715 180.731 170.588C180.899 170.461 181.041 170.302 181.147 170.119C181.253 169.937 181.321 169.735 181.347 169.526V169.518Z" fill="#3B4E3B"/>
<path d="M196.737 215.371C196.188 216.741 195.269 217.932 194.082 218.811C192.896 219.689 191.489 220.221 190.018 220.347C188.547 220.473 187.07 220.187 185.751 219.523C184.433 218.858 183.325 217.84 182.551 216.583C182.332 216.226 181.98 215.971 181.572 215.874C181.165 215.777 180.735 215.846 180.378 216.066C180.022 216.285 179.767 216.638 179.67 217.045C179.573 217.453 179.642 217.882 179.861 218.239C180.941 219.997 182.489 221.42 184.331 222.35C186.173 223.279 188.238 223.678 190.294 223.502C192.35 223.325 194.316 222.581 195.973 221.351C197.63 220.122 198.913 218.455 199.677 216.539C199.757 216.346 199.797 216.139 199.796 215.93C199.795 215.721 199.753 215.515 199.671 215.322C199.59 215.13 199.471 214.956 199.322 214.81C199.173 214.664 198.996 214.549 198.802 214.471C198.608 214.394 198.401 214.356 198.192 214.36C197.983 214.363 197.777 214.408 197.586 214.491C197.394 214.575 197.222 214.696 197.077 214.847C196.933 214.998 196.82 215.176 196.745 215.371H196.737Z" fill="#3B4E3B"/>
<path d="M197.132 186.933C196.306 184.715 195.969 182.345 196.146 179.985C196.322 177.625 197.006 175.331 198.152 173.26C199.298 171.189 200.878 169.391 202.784 167.988C204.69 166.585 206.877 165.611 209.195 165.133C209.605 165.049 209.965 164.805 210.196 164.456C210.427 164.106 210.509 163.679 210.425 163.268C210.341 162.858 210.097 162.498 209.747 162.267C209.398 162.036 208.971 161.954 208.56 162.038C205.796 162.609 203.188 163.77 200.915 165.443C198.642 167.116 196.757 169.261 195.391 171.73C194.024 174.2 193.208 176.936 192.998 179.75C192.788 182.565 193.189 185.392 194.173 188.037C194.32 188.429 194.616 188.747 194.997 188.921C195.378 189.095 195.812 189.11 196.204 188.964C196.597 188.817 196.915 188.521 197.089 188.14C197.263 187.759 197.278 187.325 197.132 186.933Z" fill="#3B4E3B"/>
</g>
<path d="M258.421 186.002H256.84C256.84 201.465 251.477 216.45 241.667 228.403C231.857 240.355 218.206 248.537 203.04 251.553C187.874 254.569 172.131 252.234 158.494 244.944C144.857 237.654 134.169 225.862 128.252 211.576C122.335 197.289 121.554 181.393 126.043 166.596C130.532 151.799 140.013 139.016 152.87 130.425C165.727 121.834 181.165 117.968 196.554 119.483C211.943 120.999 226.33 127.804 237.264 138.738C243.481 144.937 248.41 152.305 251.77 160.416C255.13 168.527 256.853 177.222 256.84 186.002H260C260 169.807 254.385 154.113 244.112 141.594C233.838 129.075 219.541 120.505 203.658 117.345C187.774 114.186 171.286 116.631 157.003 124.265C142.72 131.899 131.526 144.249 125.329 159.211C119.131 174.174 118.313 190.822 123.014 206.319C127.715 221.817 137.644 235.205 151.11 244.203C164.576 253.2 180.744 257.25 196.861 255.663C212.978 254.075 228.046 246.949 239.498 235.497C246.007 229.004 251.169 221.289 254.687 212.795C258.205 204.301 260.011 195.196 260 186.002H258.421Z" fill="#3B4E3B"/>
<path d="M258.415 70.0619C258.415 107.853 227.784 138.488 189.994 138.488C152.203 138.488 121.572 107.853 121.572 70.0619C121.572 32.2711 152.205 1.64062 189.994 1.64062C227.782 1.64062 258.415 32.2762 258.415 70.0619Z" fill="#FFE7D6"/>
<mask id="mask1_3041_18009" style="mask-type:luminance" maskUnits="userSpaceOnUse" x="121" y="1" width="138" height="138">
<path d="M258.448 69.9252C258.448 107.716 227.818 138.352 190.027 138.352C152.236 138.352 121.605 107.716 121.605 69.9252C121.605 32.1343 152.238 1.50391 190.027 1.50391C227.815 1.50391 258.448 32.1395 258.448 69.9252Z" fill="white"/>
</mask>
<g mask="url(#mask1_3041_18009)">
<path d="M188.973 118.277C189.231 117.991 189.437 117.728 189.571 117.542C189.62 117.452 189.667 117.374 189.708 117.305C189.478 117.645 189.218 117.957 188.973 118.277Z" fill="#FFF9F5"/>
<path d="M189.555 117.578C189.652 117.446 189.743 117.309 189.825 117.168C189.787 117.227 189.735 117.284 189.691 117.341C189.648 117.398 189.604 117.475 189.555 117.578Z" fill="#FFF9F5"/>
<path d="M155.411 93.88C155.776 92.9162 156.258 92.0007 156.845 91.1535C163.74 81.2744 161.016 73.2396 157.332 68.0859C158.563 73.2447 156.558 77.6297 148.993 86.2424C138.438 98.2676 144.257 121.531 165.429 124.278C180.248 126.205 186.805 120.698 188.951 118.224C189.196 117.905 189.467 117.592 189.686 117.252C189.73 117.195 189.781 117.139 189.82 117.079C166.786 132.53 150.064 107.791 155.411 93.88Z" fill="#FFF9F5"/>
<path d="M234.076 94.832C251.222 83.5471 240.267 60.482 232.387 59.2516C233.829 61.2146 235.578 70.7867 229.882 76.6755C224.187 82.5643 212.513 77.4107 219.33 64.3976C226.147 51.3845 219.879 36.5967 205.749 33.731C191.699 30.8937 187.492 23.1709 191.73 15.9589C195.968 8.74689 189.69 3.54938 185.32 1.64062C188.065 8.3187 184.425 14.3262 172.509 19.7145C157.79 26.3694 159.759 40.9327 170.141 48.0493C178.973 54.1032 175.377 66.2083 163.891 69.0714C166.31 62.9325 162.261 54.7299 153.251 51.0336C146.379 48.2118 147.318 43.6978 148.12 42.078C143.851 44.531 140.661 51.5573 145.043 56.8038C151.654 64.7097 153.233 70.5391 143.557 81.824C130.941 96.5472 137.666 113.724 150.919 122.321C163.733 130.644 180.422 129.473 188.965 118.294C186.819 120.768 180.262 126.275 165.444 124.348C144.272 121.601 138.453 98.3374 149.008 86.3122C156.56 77.7099 158.577 73.3094 157.347 68.1557C161.03 73.3146 163.754 81.3443 156.859 91.2234C156.272 92.0705 155.791 92.9861 155.425 93.9498C159.606 86.1368 168.26 79.0537 176.001 75.1872C188.106 69.1385 188.106 55.8829 182.708 49.0166C177.309 42.1502 174.523 35.6037 177.636 31.3476C178.292 35.1058 179.599 40.9946 188.924 44.7606C190.143 45.2617 191.325 45.8469 192.463 46.5119C192.416 46.4861 192.378 46.45 192.324 46.4217C180.417 40.4246 173.422 27.2954 185.934 18.0972C185.934 18.0972 182.132 29.1371 191.704 33.553C201.277 37.969 212.438 46.5584 214.522 57.9697C216.606 69.381 214.202 83.5703 211.667 87.9449C215.794 90.9448 218.659 94.6514 220.305 98.5076C220.32 94.5456 221.491 90.8081 225.239 88.9303C229.24 86.9338 232.934 84.0294 232.934 81.8962C234.897 85.5074 233.914 93.0212 229.005 95.4768C235.712 98.7449 235.552 121.813 218.688 123.45C201.824 125.088 192.669 123.394 192.264 131.601C193.412 126.043 203.062 126.203 210.129 127.309C218.623 128.635 228.812 125.504 233.602 121.635C243.762 113.484 243.674 98.0227 234.076 94.832Z" fill="#FFF9F5"/>
<path d="M218.674 123.449C235.528 121.811 235.699 98.7432 228.992 95.4751C233.893 93.0195 234.883 85.4954 232.92 81.8945C232.92 84.0225 229.227 86.9321 225.226 88.9286C221.478 90.8064 220.307 94.544 220.292 98.5059C224.844 109.118 219.923 120.764 205.158 121.426C204.983 121.426 204.841 121.427 204.663 121.442C204.302 121.496 203.972 121.599 203.585 121.63C195.532 122.275 189.971 126.041 192.261 131.6C192.664 123.392 201.831 125.084 218.674 123.449Z" fill="#FFF9F5"/>
<path d="M195.126 48.1537C204.44 54.6022 215.472 68.0151 211.65 87.8946C214.185 83.5096 216.594 69.3229 214.505 57.9193C212.416 46.5158 201.257 37.9186 191.688 33.5027C182.118 29.0867 185.918 18.0469 185.918 18.0469C173.405 27.245 180.4 40.3742 192.307 46.3713C192.361 46.3997 192.4 46.4358 192.446 46.4616C193.305 46.9517 194.185 47.4934 195.09 48.1305L195.126 48.1537Z" fill="#FFF9F5"/>
<path d="M192.459 46.4844C193.387 46.9625 194.272 47.5209 195.103 48.1532C194.198 47.5264 193.318 46.9745 192.459 46.4844Z" fill="#FFF9F5"/>
<path d="M220.3 98.4686C218.655 94.6227 215.791 90.9058 211.662 87.9059C215.484 68.0135 204.452 54.6058 195.138 48.165L195.102 48.1418C194.271 47.5095 193.386 46.9511 192.458 46.4729C191.32 45.8079 190.138 45.2226 188.919 44.7215C179.595 40.953 178.287 35.0642 177.632 31.3086C174.518 35.5646 177.304 42.1086 182.703 48.9775C188.101 55.8465 188.101 69.0969 175.996 75.1482C168.258 79.0173 159.602 86.0978 155.42 93.9108C150.071 107.822 166.796 132.561 189.83 117.11C178.318 123.558 167.845 119.073 165.147 112.444C162.449 105.815 160.231 95.2237 180.108 81.0395C193.358 71.5834 191.166 60.1799 191.166 60.1799C206.854 67.6937 208.768 82.3473 208.216 89.9539C212.846 90.9857 217.244 99.8615 216.919 106.068C216.809 108.309 216.335 110.517 215.515 112.606C213.674 117.249 210.062 120.602 204.664 121.407C204.842 121.407 204.984 121.407 205.159 121.392C219.931 120.726 224.853 109.08 220.3 98.4686Z" fill="#FFF9F5"/>
<path d="M188.946 118.232L190.137 119.264C190.395 118.952 190.64 118.671 190.818 118.426C190.862 118.365 190.902 118.301 190.937 118.235C190.965 118.183 190.994 118.134 191.04 118.059C191.254 117.706 191.321 117.282 191.225 116.88C191.13 116.477 190.881 116.128 190.531 115.908C190.182 115.687 189.76 115.612 189.355 115.7C188.951 115.787 188.598 116.03 188.37 116.375C188.205 116.633 187.965 116.909 187.689 117.273C187.441 117.599 187.33 118.009 187.378 118.416C187.427 118.822 187.632 119.194 187.95 119.453C188.267 119.712 188.673 119.837 189.082 119.801C189.49 119.766 189.868 119.573 190.137 119.264L188.946 118.232L190.204 119.187C190.413 118.908 190.697 118.575 190.991 118.142L189.681 117.26L188.321 116.458C188.285 116.517 188.221 116.623 188.151 116.757L189.544 117.497L188.27 116.566C188.179 116.692 187.983 116.935 187.754 117.195L188.943 118.227L190.202 119.182L188.946 118.232Z" fill="#3B4E3B"/>
<path d="M189.555 117.533L190.845 118.454C191.067 118.144 191.18 117.938 191.209 117.899C191.415 117.544 191.475 117.123 191.376 116.724C191.276 116.326 191.026 115.982 190.677 115.765C190.329 115.549 189.909 115.476 189.508 115.563C189.107 115.651 188.756 115.891 188.529 116.233L189.138 116.651L188.557 116.194L188.529 116.233L189.138 116.651L188.557 116.194C188.557 116.194 188.508 116.251 188.426 116.359C188.393 116.402 188.364 116.447 188.338 116.493C188.302 116.553 188.237 116.658 188.168 116.792C187.978 117.146 187.93 117.559 188.034 117.947C188.138 118.334 188.386 118.668 188.727 118.88C189.068 119.091 189.477 119.165 189.87 119.086C190.264 119.007 190.612 118.781 190.845 118.454L189.555 117.533L190.948 118.276C190.977 118.224 191.005 118.175 191.051 118.1L189.692 117.295L190.961 118.234L190.512 117.902L190.953 118.247L190.505 117.914L190.946 118.26L190.773 118.126L190.943 118.26L190.77 118.126L190.941 118.26C191.001 118.189 191.058 118.115 191.111 118.038L189.806 117.148L188.431 116.375L189.277 116.852L188.436 116.364L189.282 116.841L188.441 116.354L188.549 116.416L188.444 116.354L188.552 116.416L188.446 116.354C188.446 116.354 188.384 116.455 188.261 116.63L189.55 117.548L190.943 118.291L189.555 117.533Z" fill="#3B4E3B"/>
<path d="M193.826 131.857C193.885 131.556 193.989 131.267 194.135 130.998C194.401 130.523 194.776 130.118 195.229 129.816C195.655 129.526 196.115 129.289 196.599 129.11C197.515 128.774 198.467 128.543 199.436 128.424C200.577 128.272 201.726 128.2 202.877 128.207C205.231 128.228 207.581 128.428 209.906 128.805C211.366 129.027 212.842 129.137 214.319 129.133C218.195 129.104 222.044 128.483 225.733 127.291C227.426 126.755 229.075 126.087 230.665 125.295C232.067 124.608 233.392 123.775 234.619 122.808C237.239 120.699 239.348 118.025 240.791 114.987C242.115 112.226 242.815 109.207 242.84 106.145C242.84 103.292 242.182 100.558 240.81 98.2677C240.124 97.1165 239.245 96.0921 238.212 95.2395C237.134 94.3598 235.904 93.6857 234.583 93.2508L234.085 94.7494L234.952 96.0675C238.498 93.746 240.977 90.8726 242.54 87.785C244.022 84.8107 244.781 81.5282 244.753 78.2051C244.706 72.3534 242.738 66.6793 239.151 62.0555C238.27 60.9401 237.24 59.95 236.092 59.1124C235.073 58.3519 233.891 57.8373 232.641 57.6086C232.332 57.5601 232.015 57.6045 231.731 57.7361C231.448 57.8678 231.21 58.0807 231.047 58.3479C230.885 58.6151 230.805 58.9246 230.819 59.237C230.833 59.5495 230.939 59.8508 231.124 60.1028C231.17 60.1701 231.212 60.2409 231.248 60.3144C231.383 60.5889 231.497 60.8735 231.588 61.1656C231.797 61.8402 231.952 62.5301 232.052 63.2291C232.183 64.1043 232.249 64.988 232.248 65.873C232.255 67.5772 231.994 69.2719 231.475 70.8951C230.928 72.6213 229.993 74.1996 228.743 75.5096C228.142 76.1369 227.418 76.6346 226.618 76.9722C225.877 77.2847 225.082 77.446 224.278 77.4468C223.573 77.4491 222.873 77.3206 222.215 77.0676C221.24 76.6974 220.404 76.0364 219.818 75.1743C219.131 74.1096 218.784 72.8609 218.823 71.5941C218.823 69.8736 219.339 67.6863 220.716 65.063C222.621 61.489 223.63 57.5058 223.656 53.4557C223.691 48.5159 222.041 43.7118 218.977 39.8365C215.944 36.0318 211.497 33.2229 206.047 32.1189C203.787 31.6823 201.577 31.0142 199.454 30.125C196.691 28.9307 194.739 27.4811 193.506 25.9644C192.93 25.2704 192.474 24.486 192.154 23.643C191.866 22.8706 191.72 22.0529 191.721 21.2286C191.721 19.7971 192.152 18.2727 193.075 16.6966C193.6 15.8156 194.013 14.8729 194.305 13.8902C194.565 13.0116 194.697 12.1005 194.7 11.1844C194.695 9.81196 194.388 8.45738 193.8 7.21732C192.959 5.50131 191.75 3.99114 190.261 2.79364C188.95 1.71108 187.495 0.815249 185.938 0.131673C185.65 0.00604108 185.331 -0.0307833 185.022 0.0259088C184.713 0.0826009 184.428 0.230238 184.203 0.449911C183.978 0.669585 183.824 0.951294 183.761 1.259C183.697 1.5667 183.727 1.88641 183.846 2.17716C184.321 3.28117 184.576 4.46778 184.594 5.66968C184.592 6.73094 184.363 7.77943 183.921 8.74431C183.534 9.58139 183.036 10.3623 182.44 11.0658C181.252 12.4439 179.877 13.649 178.354 14.646C176.291 16.0167 174.112 17.2068 171.844 18.203C167.926 19.9751 165.032 22.33 163.126 25.0229C161.299 27.5716 160.316 30.6287 160.317 33.7645C160.349 36.7817 161.175 39.7371 162.713 42.3333C164.343 45.1047 166.571 47.4777 169.234 49.2797C170.574 50.1646 171.684 51.3566 172.471 52.7567C173.136 53.9683 173.484 55.3286 173.482 56.7109C173.482 58.906 172.623 61.1733 170.939 63.113C169.254 65.0527 166.752 66.6545 163.494 67.467L163.876 68.9992L165.344 69.577C165.877 68.2127 166.149 66.76 166.143 65.2952C166.143 62.1999 164.993 59.0375 162.891 56.2673C160.789 53.497 157.732 51.1085 153.837 49.4989C152.957 49.1512 152.122 48.7001 151.348 48.1551C150.597 47.6498 149.978 46.9724 149.542 46.1792C149.264 45.6409 149.119 45.0439 149.119 44.4381C149.12 44.0987 149.163 43.7607 149.248 43.4321C149.308 43.1829 149.395 42.9408 149.506 42.7099C149.654 42.4068 149.701 42.0642 149.64 41.7325C149.579 41.4008 149.413 41.0974 149.167 40.8667C148.921 40.6359 148.608 40.4901 148.273 40.4504C147.938 40.4108 147.599 40.4795 147.306 40.6464C146.448 41.146 145.661 41.7594 144.967 42.47C143.875 43.5862 142.993 44.8898 142.364 46.3185C141.697 47.8061 141.345 49.4161 141.332 51.0466C141.331 52.2165 141.528 53.3783 141.915 54.4823C142.344 55.6756 142.981 56.7831 143.798 57.753C145.418 59.685 146.684 61.4519 147.525 63.1259C147.928 63.9088 148.247 64.7318 148.477 65.5815C148.689 66.3768 148.796 67.1961 148.797 68.0191C148.792 68.8899 148.677 69.7567 148.454 70.5984C148.009 72.201 147.337 73.7315 146.457 75.1434C145.24 77.1193 143.86 78.9899 142.33 80.7355C140.04 83.3578 138.218 86.3539 136.942 89.5932C135.823 92.4797 135.246 95.5483 135.242 98.6443C135.242 103.684 136.79 108.526 139.387 112.792C142.09 117.138 145.725 120.828 150.03 123.595C155.836 127.363 162.411 129.27 168.751 129.27C172.847 129.296 176.9 128.445 180.64 126.775C184.398 125.074 187.677 122.469 190.184 119.192C190.438 118.859 190.55 118.439 190.494 118.023C190.439 117.608 190.221 117.232 189.888 116.977C189.555 116.723 189.135 116.611 188.72 116.666C188.305 116.722 187.928 116.94 187.674 117.273C185.482 120.14 182.612 122.417 179.322 123.899C175.995 125.383 172.389 126.137 168.746 126.11C163.035 126.11 157.046 124.379 151.745 120.936C147.835 118.426 144.533 115.078 142.078 111.134C139.733 107.298 138.394 103.027 138.394 98.634C138.398 95.9259 138.904 93.2419 139.885 90.7178C141.032 87.8138 142.668 85.1283 144.724 82.7784C147.193 79.8972 148.983 77.3255 150.174 74.906C150.74 73.7789 151.189 72.5965 151.513 71.3774C151.802 70.276 151.95 69.1423 151.954 68.0036C151.953 66.9099 151.811 65.8211 151.531 64.7638C151.083 63.1517 150.404 61.6129 149.514 60.1957C148.53 58.6217 147.43 57.1232 146.223 55.7127C145.645 55.0317 145.195 54.2523 144.894 53.4119C144.625 52.6471 144.489 51.8418 144.492 51.0311C144.517 49.4354 144.968 47.8753 145.797 46.512C146.194 45.8437 146.669 45.2253 147.213 44.6703C147.707 44.168 148.265 43.7342 148.874 43.3806L148.101 42.0135L146.687 41.3067C146.475 41.7397 146.308 42.1935 146.189 42.6609C146.04 43.2442 145.965 43.8439 145.965 44.4459C145.964 45.1529 146.072 45.8558 146.285 46.53C146.685 47.7555 147.385 48.8613 148.322 49.7466C149.575 50.907 151.038 51.8175 152.633 52.4291C156.03 53.822 158.63 55.8881 160.371 58.1812C162.112 60.4743 162.984 62.9944 162.981 65.3029C162.987 66.3715 162.79 67.4313 162.401 68.4266C162.295 68.6966 162.265 68.9905 162.315 69.2763C162.365 69.562 162.492 69.8286 162.684 70.0467C162.875 70.2648 163.122 70.4261 163.399 70.513C163.676 70.5998 163.971 70.6089 164.253 70.5391C168.091 69.5822 171.184 67.6502 173.317 65.192C175.45 62.7338 176.649 59.7263 176.649 56.7006C176.652 54.7914 176.173 52.9123 175.257 51.2374C174.229 49.4002 172.78 47.8329 171.029 46.6641C168.753 45.1261 166.85 43.0992 165.457 40.7315C164.197 38.6164 163.517 36.206 163.487 33.7439C163.484 31.2613 164.262 28.8408 165.713 26.8259C167.26 24.6541 169.657 22.6447 173.157 21.061C175.347 20.0916 177.463 18.9622 179.487 17.682C182.193 15.9305 184.243 14.0708 185.646 12.0717C186.325 11.1122 186.86 10.0591 187.235 8.94551C187.59 7.88084 187.77 6.76596 187.769 5.64386C187.751 4.03048 187.416 2.43638 186.784 0.951938L185.324 1.55293L184.692 2.99997C185.524 3.36493 186.322 3.80437 187.075 4.31291C188.308 5.11641 189.386 6.13618 190.256 7.32306C190.658 7.8861 190.98 8.50248 191.213 9.15443C191.442 9.79781 191.559 10.4757 191.558 11.1586C191.56 11.7774 191.473 12.3932 191.3 12.9875C191.081 13.7173 190.773 14.4173 190.382 15.0716C189.246 16.9179 188.627 19.0354 188.589 21.2029C188.591 22.8111 188.974 24.3961 189.706 25.8277C190.294 26.9714 191.057 28.0159 191.968 28.923C193.568 30.4817 195.428 31.7476 197.465 32.6631C200.02 33.8236 202.705 34.6748 205.461 35.1987C207.71 35.642 209.864 36.471 211.83 37.6491C214.529 39.2776 216.748 41.5915 218.263 44.3556C219.773 47.1427 220.556 50.2653 220.541 53.4351C220.516 56.9758 219.631 60.4574 217.961 63.5799C216.413 66.5488 215.707 69.2236 215.704 71.576C215.691 72.873 215.931 74.16 216.411 75.3652C217.056 76.9714 218.191 78.3339 219.653 79.2601C221.049 80.1334 222.663 80.5932 224.309 80.5859C225.532 80.5846 226.743 80.34 227.871 79.8662C229.067 79.3623 230.147 78.6198 231.046 77.6841C232.627 76.0294 233.81 74.0368 234.505 71.8572C235.126 69.9165 235.437 67.8899 235.426 65.8523C235.431 64.3277 235.263 62.8074 234.926 61.3203C234.794 60.7304 234.622 60.1504 234.41 59.5844C234.309 59.3264 234.204 59.0892 234.09 58.8647C233.977 58.6424 233.847 58.4294 233.701 58.2276L232.426 59.1614L232.184 60.7219C232.657 60.8053 233.112 60.9674 233.53 61.2017C234.592 61.8154 235.537 62.6108 236.324 63.5515C237.929 65.4528 239.192 67.6181 240.056 69.951C241.074 72.585 241.606 75.3815 241.627 78.2051C241.653 81.0324 241.011 83.8259 239.755 86.3586C238.436 88.938 236.37 91.3704 233.247 93.4288C232.999 93.592 232.803 93.8216 232.679 94.0912C232.556 94.3609 232.511 94.6598 232.55 94.9537C232.588 95.2477 232.708 95.525 232.897 95.7539C233.085 95.9827 233.334 96.154 233.616 96.2481C234.572 96.5603 235.462 97.0465 236.241 97.6822C237.387 98.639 238.274 99.8684 238.821 101.257C239.433 102.813 239.738 104.473 239.721 106.145C239.694 108.736 239.098 111.29 237.975 113.625C236.735 116.231 234.923 118.524 232.674 120.332C231.622 121.157 230.487 121.869 229.287 122.457C227.059 123.551 224.717 124.394 222.302 124.97C219.702 125.61 217.035 125.942 214.358 125.958C213.044 125.962 211.731 125.865 210.432 125.666C207.946 125.264 205.433 125.052 202.915 125.032C201.6 125.026 200.286 125.113 198.982 125.29C198.056 125.414 197.143 125.615 196.25 125.891C194.973 126.26 193.789 126.896 192.776 127.758C192.279 128.199 191.852 128.714 191.512 129.285C191.161 129.88 190.913 130.53 190.777 131.207C190.735 131.41 190.734 131.619 190.773 131.823C190.812 132.027 190.891 132.221 191.005 132.394C191.119 132.568 191.266 132.717 191.438 132.833C191.61 132.95 191.803 133.031 192.006 133.073C192.209 133.115 192.419 133.116 192.622 133.077C192.826 133.038 193.02 132.959 193.194 132.845C193.367 132.731 193.516 132.584 193.632 132.412C193.749 132.24 193.83 132.047 193.872 131.844L193.826 131.857Z" fill="#3B4E3B"/>
<path d="M205.098 119.766C204.956 119.766 204.798 119.766 204.582 119.784C204.529 119.785 204.476 119.79 204.424 119.799C204.166 119.838 203.97 119.884 203.816 119.915C203.698 119.942 203.579 119.962 203.46 119.975C201.76 120.1 200.076 120.391 198.432 120.844C197.327 121.148 196.253 121.558 195.226 122.069C193.826 122.741 192.592 123.717 191.615 124.924C191.16 125.511 190.8 126.166 190.547 126.864C190.293 127.576 190.165 128.327 190.168 129.082C190.178 130.127 190.394 131.158 190.805 132.118C190.965 132.506 191.271 132.814 191.658 132.975C192.044 133.136 192.479 133.137 192.866 132.977C193.253 132.818 193.561 132.511 193.722 132.125C193.883 131.738 193.884 131.304 193.725 130.916C193.473 130.337 193.337 129.714 193.325 129.082C193.324 128.732 193.377 128.384 193.483 128.051C193.689 127.423 194.043 126.854 194.514 126.392C195.288 125.587 196.526 124.844 198.102 124.267C199.911 123.64 201.795 123.257 203.705 123.127C203.954 123.105 204.201 123.067 204.445 123.013C204.644 122.974 204.788 122.941 204.896 122.925L204.657 121.365L204.739 122.941C204.871 122.941 204.997 122.941 205.206 122.928C205.625 122.914 206.02 122.733 206.306 122.427C206.592 122.121 206.745 121.714 206.73 121.295C206.716 120.877 206.536 120.481 206.23 120.195C205.924 119.909 205.516 119.756 205.098 119.771V119.766Z" fill="#3B4E3B"/>
<path d="M189.046 115.767C185.324 117.854 181.783 118.7 178.646 118.703C175.929 118.738 173.254 118.032 170.908 116.662C168.829 115.414 167.343 113.704 166.606 111.885C165.744 109.773 164.986 107.356 164.986 104.591C164.988 103.071 165.215 101.561 165.659 100.108C166.384 97.7037 167.769 95.0263 170.206 92.06C172.644 89.0936 176.139 85.8539 181.04 82.3614C186.227 78.66 189.224 74.5974 190.885 70.9579C192.178 68.1912 192.862 65.1796 192.892 62.126C192.903 61.3867 192.848 60.6478 192.73 59.918L191.182 60.2146L190.499 61.6385C193.557 63.0687 196.349 65.0115 198.753 67.3828C201.671 70.3099 203.864 73.8796 205.155 77.8062C206.209 81.0026 206.744 84.3477 206.739 87.7137C206.739 88.4875 206.71 89.2097 206.664 89.8752C206.637 90.2525 206.746 90.6269 206.972 90.9304C207.198 91.2339 207.525 91.4461 207.894 91.5286C208.31 91.6298 208.707 91.7988 209.068 92.029C209.953 92.6132 210.73 93.3473 211.363 94.1983C212.595 95.8283 213.565 97.6401 214.239 99.5686C214.946 101.455 215.331 103.446 215.377 105.46C215.377 105.651 215.377 105.839 215.377 106.022C215.278 108.093 214.842 110.133 214.087 112.063C213.328 114.077 212.077 115.87 210.448 117.276C208.739 118.689 206.667 119.593 204.469 119.884C204.064 119.94 203.696 120.151 203.443 120.472C203.191 120.793 203.072 121.2 203.113 121.607C203.155 122.013 203.352 122.388 203.664 122.652C203.976 122.917 204.378 123.049 204.786 123.023C204.917 123.023 205.044 123.023 205.253 123.01C205.671 122.996 206.067 122.816 206.353 122.51C206.639 122.203 206.792 121.796 206.777 121.377C206.763 120.959 206.583 120.563 206.277 120.277C205.97 119.991 205.563 119.839 205.144 119.853C205.003 119.853 204.845 119.853 204.629 119.871L204.711 121.447L204.943 123.008C207.717 122.629 210.33 121.482 212.485 119.696C214.516 117.952 216.079 115.728 217.03 113.227C217.911 110.979 218.421 108.603 218.539 106.192C218.552 105.953 218.557 105.713 218.557 105.47C218.535 103.675 218.269 101.891 217.765 100.167C217.03 97.5218 215.845 95.0229 214.263 92.7796C213.538 91.7559 212.682 90.833 211.714 90.0351C210.812 89.2778 209.747 88.7377 208.603 88.4565L208.26 90.0042L209.836 90.1177C209.888 89.3774 209.922 88.57 209.922 87.7292C209.92 85.3719 209.684 83.0207 209.215 80.7106C208.376 76.4685 206.659 72.4488 204.175 68.9098C201.435 65.0407 197.468 61.4708 191.891 58.8063C191.628 58.6805 191.334 58.6303 191.044 58.6612C190.753 58.6922 190.477 58.803 190.245 58.9815C190.014 59.16 189.836 59.3992 189.733 59.6724C189.629 59.9456 189.603 60.2422 189.658 60.5293L190.393 60.3875L189.658 60.5216L190.393 60.3797L189.658 60.5139C189.737 61.05 189.773 61.5917 189.766 62.1337C189.737 64.7334 189.15 67.2965 188.046 69.6501C186.601 72.7995 184.004 76.3901 179.237 79.7975C172.479 84.621 168.145 89.0833 165.489 93.2336C164.278 95.0832 163.331 97.0932 162.677 99.2049C162.144 100.953 161.871 102.771 161.867 104.598C161.867 107.952 162.791 110.789 163.722 113.082C164.754 115.625 166.732 117.815 169.319 119.376C172.16 121.043 175.401 121.904 178.695 121.868C182.404 121.868 186.49 120.859 190.64 118.53C191.006 118.325 191.275 117.983 191.388 117.579C191.501 117.176 191.449 116.744 191.244 116.379C191.039 116.013 190.697 115.744 190.293 115.631C189.89 115.518 189.458 115.57 189.093 115.775L189.046 115.767Z" fill="#3B4E3B"/>
</g>
<path d="M258.421 69.9947H256.843C256.841 85.4577 251.479 100.442 241.668 112.395C231.858 124.347 218.207 132.528 203.04 135.544C187.874 138.56 172.132 136.223 158.495 128.934C144.858 121.644 134.171 109.851 128.254 95.5643C122.337 81.278 121.557 65.3822 126.046 50.5851C130.536 35.7881 140.017 23.0054 152.874 14.415C165.732 5.82468 181.17 1.95814 196.558 3.47425C211.947 4.99037 226.334 11.7953 237.268 22.7296C243.483 28.9299 248.412 36.2974 251.772 44.4087C255.131 52.52 256.854 61.2152 256.843 69.9947H260C259.999 53.8 254.382 38.1067 244.107 25.5887C233.833 13.0708 219.536 4.50267 203.652 1.34426C187.768 -1.81415 171.281 0.632573 156.999 8.26753C142.717 15.9025 131.524 28.2533 125.327 43.2156C119.13 58.1778 118.313 74.8259 123.015 90.323C127.717 105.82 137.647 119.208 151.112 128.204C164.578 137.201 180.747 141.25 196.864 139.663C212.98 138.075 228.048 130.948 239.499 119.496C246.009 113.003 251.172 105.287 254.69 96.7915C258.208 88.2963 260.013 79.1896 260 69.9947H258.421Z" fill="#3B4E3B"/>
<path d="M70.0029 138.42C107.79 138.42 138.422 107.788 138.422 70.0009C138.422 32.2142 107.79 1.58203 70.0029 1.58203C32.2162 1.58203 1.58398 32.2142 1.58398 70.0009C1.58398 107.788 32.2162 138.42 70.0029 138.42Z" fill="#FFE7D6"/>
<mask id="mask2_3041_18009" style="mask-type:luminance" maskUnits="userSpaceOnUse" x="1" y="1" width="138" height="138">
<path d="M70.0029 138.42C107.79 138.42 138.422 107.788 138.422 70.0009C138.422 32.2142 107.79 1.58203 70.0029 1.58203C32.2162 1.58203 1.58398 32.2142 1.58398 70.0009C1.58398 107.788 32.2162 138.42 70.0029 138.42Z" fill="white"/>
</mask>
<g mask="url(#mask2_3041_18009)">
<path d="M128.234 105.38C119.524 122.738 101.611 134.68 80.8717 134.68C51.595 134.68 27.8637 110.951 27.8637 81.6667C27.8637 52.3822 51.5925 28.6586 80.8717 28.6586C98.0725 28.6586 113.313 36.8889 123.001 49.5838C124.218 50.3659 125.387 51.2212 126.501 52.145C115.926 32.3598 95.0987 18.873 71.0991 18.873C36.4241 18.873 8.31836 46.9865 8.31836 81.6538C8.31836 116.321 36.4318 144.44 71.0991 144.44C97.9797 144.44 120.847 127.512 129.8 103.768C129.289 104.325 128.773 104.864 128.234 105.38Z" fill="#FFF9F5"/>
<path d="M90.6465 124.902C83.9151 124.911 77.2744 123.349 71.2534 120.339C65.2324 117.329 59.9973 112.955 55.9652 107.564C51.933 102.174 49.2152 95.9169 48.0281 89.2909C46.841 82.665 47.2174 75.8534 49.1274 69.3986C51.0374 62.9438 54.4282 57.0241 59.0298 52.1111C63.6313 47.198 69.3165 43.4273 75.6325 41.0991C81.9486 38.771 88.721 37.9498 95.4104 38.7009C102.1 39.4521 108.521 41.7548 114.164 45.4257C117.284 46.398 120.255 47.7971 122.992 49.5834C113.305 36.8885 98.0643 28.6582 80.8635 28.6582C51.5869 28.6582 27.8555 52.387 27.8555 81.6663C27.8555 110.946 51.5843 134.68 80.8635 134.68C101.603 134.68 119.516 122.738 128.226 105.38C127.068 106.478 125.84 107.499 124.548 108.436C120.512 113.568 115.363 117.716 109.491 120.568C103.618 123.42 97.175 124.902 90.6465 124.902Z" fill="#FFF9F5"/>
<path d="M67.8792 79.554C67.882 73.9598 69.1981 68.4444 71.7215 63.4516C74.2448 58.4588 77.9051 54.1282 82.4076 50.8082C86.9101 47.4882 92.1292 45.2716 97.6447 44.3367C103.16 43.4019 108.818 43.7749 114.163 45.4258C107.135 40.856 98.9303 38.428 90.5472 38.4375C82.1642 38.447 73.9647 40.8935 66.9471 45.4792C59.9294 50.0649 54.3964 56.5919 51.0215 64.2656C47.6466 71.9393 46.5756 80.4287 47.9387 88.7002C49.3018 96.9717 53.0403 104.668 58.699 110.853C64.3578 117.038 71.6927 121.445 79.8107 123.536C87.9287 125.628 96.4796 125.314 104.422 122.633C112.365 119.952 119.357 115.019 124.547 108.436C119.223 112.314 112.929 114.642 106.362 115.163C99.796 115.683 93.2137 114.375 87.3451 111.384C81.4765 108.393 76.5506 103.835 73.1134 98.2159C69.6762 92.5968 67.8619 86.1358 67.8715 79.5488L67.8792 79.554Z" fill="#FFF9F5"/>
<path d="M8.31836 81.0562C8.46022 68.0621 13.1905 51.9265 21.8025 41.491C30.6529 30.7576 42.8765 23.3367 56.4827 20.4368C71.0965 17.3418 85.7748 18.8171 98.8566 25.3374C113.001 32.2806 122.996 43.5234 129.101 57.2371L129.186 57.4435C131.422 62.1712 129.023 67.5462 124.285 69.7618C122.013 70.8257 119.411 70.9436 117.051 70.0894C114.692 69.2352 112.768 67.479 111.704 65.2069C111.534 64.8535 111.391 64.4879 111.276 64.1133C107.923 53.7552 100.83 44.3152 91.2841 38.0426C81.8054 31.7338 69.8301 28.6645 57.9296 29.7478C46.0446 30.7614 34.2833 36.0489 25.2716 44.6867C16.2211 53.2754 10.0464 68.1575 8.31836 81.0562Z" fill="#FFF9F5"/>
<path d="M8.31836 81.0561C8.37252 69.2098 12.961 54.1626 21.3125 44.9471C29.5892 35.7083 41.5413 29.4331 54.4116 28.0403C67.2509 26.5598 80.8537 29.9515 91.787 37.7227C102.751 45.4036 110.912 57.3841 114.022 70.8295L114.064 71.1545C114.576 73.5674 114.11 76.0849 112.767 78.1543C111.425 80.2236 109.316 81.6755 106.904 82.191C101.867 83.2511 96.8732 80.0502 95.8699 75.0182C95.7943 74.5855 95.7427 74.1489 95.7151 73.7105C95.0291 64.4589 90.2343 55.3181 82.8603 48.589C75.5534 41.8366 65.4403 37.6685 54.7959 37.4983C44.1721 37.2404 33.1898 41.0654 24.6035 48.3801C16.0019 55.6199 9.9639 69.2898 8.31836 81.0561Z" fill="#FFF9F5"/>
<path d="M8.31681 81.0553C8.26781 70.4573 12.6783 56.6224 20.6971 48.748C28.6127 40.8118 40.0902 36.0145 51.9365 36.1615C63.7648 36.1924 75.8717 41.2245 84.5404 50.1744C93.2866 59.0262 98.512 71.7985 98.2619 84.8752V85.311C98.2542 86.5772 97.9952 87.8292 97.4998 88.9944C97.0044 90.1596 96.2825 91.2149 95.376 92.0988C94.4695 92.9828 93.3964 93.6779 92.2191 94.1438C91.0418 94.6097 89.7837 94.8372 88.5177 94.8129C87.2518 94.7887 86.0033 94.5132 84.8447 94.0026C83.6861 93.4919 82.6404 92.7562 81.7684 91.8381C80.8965 90.9201 80.2155 89.838 79.7651 88.6546C79.3147 87.4713 79.1038 86.2103 79.1447 84.9448C79.1529 84.4422 79.2012 83.9412 79.2891 83.4463C80.718 75.4326 78.8481 66.6194 73.7258 59.4828C68.6782 52.3383 60.497 47.1206 51.2324 45.6582C41.9859 44.1106 31.8754 46.4319 23.8153 52.3512C15.7063 58.1983 9.86434 70.545 8.31681 81.0553Z" fill="#FFF9F5"/>
<path d="M6.73829 81.6694C6.73031 96.7374 12.0122 111.33 21.6628 122.902C31.3134 134.474 44.7201 142.291 59.5445 144.989C74.3689 147.688 89.6701 145.096 102.779 137.667C115.889 130.238 125.974 118.442 131.276 104.338C131.405 103.996 131.412 103.62 131.295 103.273C131.177 102.927 130.943 102.632 130.633 102.439C130.322 102.246 129.954 102.166 129.592 102.215C129.229 102.263 128.894 102.435 128.645 102.703C128.129 103.242 127.647 103.758 127.141 104.25C127.011 104.377 126.902 104.525 126.819 104.686C122.599 113.093 116.168 120.19 108.218 125.217C97.6286 131.868 84.979 134.432 72.6359 132.43C60.2928 130.428 49.102 123.998 41.1576 114.341C33.2132 104.685 29.0597 92.4645 29.4742 79.967C29.8887 67.4695 34.8428 55.5513 43.4096 46.4425C43.6966 46.1374 43.8506 45.7308 43.8378 45.3121C43.8249 44.8935 43.6463 44.4971 43.3412 44.2101C43.0362 43.9232 42.6296 43.7692 42.2109 43.782C41.7923 43.7948 41.3959 43.9734 41.1089 44.2785C35.7271 49.982 31.6376 56.7783 29.119 64.2046C26.6004 71.6309 25.7118 79.5128 26.5138 87.3135C27.3157 95.1141 29.7893 102.65 33.7662 109.409C37.7431 116.167 43.1298 121.99 49.5595 126.479C55.9891 130.968 63.3108 134.019 71.0257 135.423C78.7407 136.828 86.6677 136.554 94.2671 134.619C101.866 132.684 108.959 129.134 115.063 124.211C121.167 119.288 126.138 113.107 129.638 106.089L128.227 105.38L129.316 106.523C129.891 105.973 130.427 105.414 130.946 104.859L129.793 103.781L128.315 103.224C123.973 114.716 116.29 124.644 106.255 131.729C97.0901 138.171 86.3327 141.973 75.1556 142.72C63.9784 143.467 52.8107 141.132 42.87 135.967C32.9293 130.803 24.5974 123.009 18.7827 113.434C12.968 103.859 9.89378 92.8715 9.89525 81.6694C9.89525 81.2508 9.72895 80.8493 9.43293 80.5532C9.13691 80.2572 8.73541 80.0909 8.31677 80.0909C7.89813 80.0909 7.49663 80.2572 7.20061 80.5532C6.90459 80.8493 6.73829 81.2508 6.73829 81.6694Z" fill="#3B4E3B"/>
<path d="M41.1094 44.27C35.7297 49.9737 31.6422 56.7696 29.1251 64.1951C26.608 71.6206 25.7205 79.5013 26.5229 87.3006C27.3253 95.0999 29.7989 102.635 33.7752 109.392C37.7515 116.15 43.1372 121.971 49.5655 126.46C55.9939 130.949 63.314 134 71.0275 135.405C78.741 136.81 86.6668 136.537 94.2653 134.604C101.864 132.671 108.956 129.123 115.061 124.203C121.165 119.282 126.137 113.104 129.638 106.089C129.803 105.756 129.846 105.376 129.758 105.015C129.671 104.654 129.46 104.336 129.161 104.115C128.862 103.894 128.495 103.786 128.125 103.809C127.754 103.832 127.404 103.984 127.134 104.239C126.028 105.29 124.854 106.266 123.619 107.162C123.503 107.245 123.4 107.344 123.312 107.456C119.478 112.309 114.619 116.255 109.082 119.011C101.363 122.82 92.6541 124.145 84.1516 122.804C75.6492 121.462 67.7708 117.521 61.5994 111.52C55.428 105.52 51.2665 97.7553 49.6869 89.2939C48.1072 80.8325 49.187 72.0895 52.7778 64.2667C55.2048 59.0022 58.7006 54.3004 63.0431 50.4601C63.1984 50.3228 63.3251 50.1562 63.416 49.9699C63.507 49.7835 63.5603 49.5811 63.573 49.3742C63.5857 49.1673 63.5575 48.9599 63.49 48.7638C63.4226 48.5678 63.3172 48.387 63.1798 48.2317C63.0425 48.0764 62.8759 47.9496 62.6895 47.8587C62.5032 47.7678 62.3008 47.7145 62.0939 47.7018C61.887 47.6891 61.6796 47.7173 61.4835 47.7847C61.2875 47.8522 61.1067 47.9576 60.9514 48.095C56.2834 52.2128 52.5246 57.2581 49.9148 62.9092C47.305 68.5604 45.9014 74.6934 45.7934 80.9171C45.6855 87.1409 46.8756 93.3188 49.2879 99.057C51.7002 104.795 55.2817 109.968 59.8041 114.245C64.3265 118.522 69.6906 121.81 75.5543 123.899C81.4179 125.988 87.6526 126.832 93.8606 126.378C100.069 125.924 106.114 124.181 111.611 121.26C117.108 118.34 121.936 114.306 125.788 109.416L124.547 108.436L125.478 109.71C126.827 108.733 128.11 107.668 129.316 106.519L128.225 105.379L126.812 104.673C122.591 113.079 116.161 120.177 108.21 125.203C97.6213 131.854 84.9717 134.418 72.6286 132.417C60.2855 130.415 49.0947 123.984 41.1504 114.328C33.206 104.671 29.0524 92.4509 29.4669 79.9534C29.8814 67.4559 34.8356 55.5376 43.4024 46.4288C43.6893 46.1237 43.8433 45.7171 43.8305 45.2985C43.8177 44.8799 43.6391 44.4834 43.334 44.1965C43.0289 43.9095 42.6223 43.7555 42.2037 43.7683C41.7851 43.7811 41.3887 43.9597 41.1017 44.2648L41.1094 44.27Z" fill="#3B4E3B"/>
<path d="M60.9596 48.0954C56.2916 52.2132 52.5329 57.2585 49.923 62.9096C47.3132 68.5608 45.9096 74.6938 45.8017 80.9175C45.6937 87.1412 46.8838 93.3192 49.2961 99.0574C51.7084 104.796 55.29 109.968 59.8124 114.246C64.3348 118.523 69.6988 121.811 75.5625 123.9C81.4262 125.989 87.6608 126.833 93.8689 126.378C100.077 125.924 106.122 124.181 111.619 121.261C117.116 118.34 121.944 114.306 125.796 109.416C126.034 109.117 126.155 108.742 126.137 108.361C126.119 107.979 125.963 107.617 125.699 107.341C125.434 107.066 125.079 106.896 124.698 106.862C124.318 106.829 123.938 106.934 123.629 107.159C117.143 111.867 109.206 114.14 101.211 113.582C93.2154 113.024 85.6717 109.669 79.9018 104.106C74.132 98.5435 70.5042 91.1274 69.6543 83.1579C68.8044 75.1884 70.7867 67.1739 75.2536 60.5195C75.4872 60.172 75.5732 59.7459 75.4927 59.335C75.4121 58.9241 75.1717 58.562 74.8242 58.3284C74.4767 58.0948 74.0506 58.0088 73.6397 58.0894C73.2288 58.1699 72.8667 58.4104 72.6331 58.7579C67.7356 66.0265 65.5562 74.7886 66.4779 83.5047C67.3996 92.2207 71.3634 100.333 77.673 106.417C83.9825 112.5 92.2341 116.166 100.978 116.769C109.722 117.372 118.399 114.875 125.484 109.715L124.555 108.439L123.317 107.459C119.484 112.312 114.625 116.258 109.088 119.014C101.368 122.825 92.6581 124.152 84.1541 122.811C75.6501 121.471 67.7701 117.529 61.5975 111.528C55.425 105.527 51.263 97.7607 49.6837 89.2978C48.1045 80.8349 49.1856 72.0906 52.7783 64.2671C55.2053 59.0026 58.7011 54.3008 63.0436 50.4605C63.1989 50.3232 63.3256 50.1566 63.4165 49.9703C63.5074 49.7839 63.5608 49.5815 63.5735 49.3746C63.5862 49.1677 63.558 48.9603 63.4905 48.7642C63.4231 48.5682 63.3176 48.3874 63.1803 48.2321C63.043 48.0768 62.8764 47.95 62.69 47.8591C62.5037 47.7682 62.3013 47.7149 62.0944 47.7022C61.8875 47.6895 61.6801 47.7177 61.484 47.7851C61.288 47.8526 61.1072 47.958 60.9519 48.0954H60.9596Z" fill="#3B4E3B"/>
<path d="M9.89574 81.0734C9.9628 74.7594 11.1544 67.615 13.3828 60.8033C15.6113 53.9916 18.874 47.5126 23.0188 42.4908C31.6434 32.0358 43.5516 24.8064 56.8065 21.9783C61.481 20.9821 66.2464 20.4747 71.0258 20.4643C80.4349 20.4191 89.7242 22.5751 98.1514 26.7602C104.795 29.9971 110.787 34.4269 115.829 39.8291C120.745 45.1488 124.739 51.2506 127.647 57.8836L129.092 57.2414L127.634 57.8475L127.72 58.0538L127.751 58.1235C128.204 59.0731 128.44 60.112 128.442 61.1644C128.429 62.6444 127.98 64.0878 127.152 65.3143C126.269 66.6268 125.044 67.6722 123.608 68.3372C122.04 69.0726 120.272 69.2705 118.58 68.9003C116.887 68.5301 115.364 67.6124 114.246 66.2893C113.976 65.9695 113.589 65.7701 113.172 65.7351C112.755 65.7 112.341 65.8321 112.021 66.1023C111.701 66.3725 111.502 66.7587 111.467 67.1759C111.432 67.5931 111.564 68.0071 111.834 68.3269C113.4 70.1816 115.534 71.4682 117.905 71.9872C120.276 72.5062 122.752 72.2286 124.949 71.1976C126.907 70.2894 128.578 68.8621 129.78 67.0708C130.955 65.3279 131.588 63.2765 131.599 61.1747C131.595 59.6573 131.254 58.1597 130.601 56.79L129.174 57.4658L130.631 56.8571L130.546 56.6508L130.531 56.6172C127.479 49.6646 123.29 43.2691 118.135 37.6935C112.831 32.0112 106.529 27.3507 99.5416 23.9437C90.6762 19.54 80.9039 17.2701 71.0051 17.3151C66.0063 17.3244 61.0221 17.8552 56.1334 18.8988C42.1754 21.8737 29.6361 29.4875 20.5582 40.4997C16.091 45.9161 12.6839 52.7226 10.3574 59.8438C8.03098 66.9651 6.78779 74.3777 6.71299 81.0579C6.70821 81.4765 6.86991 81.8799 7.16255 82.1793C7.45518 82.4788 7.85478 82.6496 8.27342 82.6544C8.69206 82.6592 9.09544 82.4975 9.39485 82.2049C9.69426 81.9122 9.86517 81.5126 9.86995 81.094L9.89574 81.0734Z" fill="#3B4E3B"/>
<path d="M102.078 49.6309C107.09 55.9668 110.642 63.3299 112.483 71.1957L114.03 70.8398L112.462 71.041L112.506 71.3659L112.526 71.4923C112.95 73.4938 112.564 75.5814 111.452 77.2987C110.34 79.0161 108.594 80.2232 106.594 80.6563C106.062 80.7676 105.521 80.8238 104.977 80.8239C103.891 80.8233 102.816 80.5953 101.823 80.1547C100.83 79.714 99.9397 79.0705 99.21 78.2654C99.0711 78.1114 98.9033 77.9863 98.7161 77.8972C98.5289 77.8082 98.3259 77.7568 98.1189 77.7462C97.9118 77.7355 97.7047 77.7657 97.5094 77.8351C97.314 77.9045 97.1342 78.0117 96.9803 78.1506C96.8263 78.2894 96.7012 78.4573 96.6121 78.6445C96.5231 78.8317 96.4717 79.0346 96.4611 79.2417C96.4504 79.4487 96.4806 79.6558 96.55 79.8512C96.6194 80.0466 96.7266 80.2264 96.8655 80.3803C98.1513 81.7985 99.7867 82.8546 101.608 83.443C103.43 84.0314 105.374 84.1315 107.247 83.7333C109.682 83.2117 111.864 81.872 113.432 79.9372C114.999 78.0024 115.857 75.5892 115.861 73.0992C115.862 72.3344 115.781 71.5718 115.619 70.8243L114.071 71.1544L115.637 70.9507L115.596 70.6283C115.589 70.5762 115.58 70.5246 115.567 70.4735C113.621 62.1535 109.865 54.365 104.564 47.6629C104.305 47.3342 103.925 47.1221 103.509 47.0733C103.093 47.0244 102.675 47.1428 102.346 47.4024C102.018 47.662 101.806 48.0416 101.757 48.4575C101.708 48.8735 101.826 49.2919 102.086 49.6205L102.078 49.6309Z" fill="#3B4E3B"/>
<path d="M90.883 39.0264C92.2833 40.0033 93.6324 41.0518 94.9246 42.1679C95.2417 42.4415 95.6544 42.578 96.0721 42.5473C96.4898 42.5166 96.8781 42.3212 97.1518 42.0041C97.4254 41.687 97.5618 41.2743 97.5311 40.8566C97.5004 40.4389 97.305 40.0506 96.988 39.7769C95.6135 38.59 94.1784 37.4752 92.6884 36.4369C92.346 36.2331 91.9392 36.1664 91.5496 36.2501C91.1601 36.3338 90.8166 36.5617 90.5881 36.8881C90.3596 37.2146 90.263 37.6153 90.3177 38.01C90.3724 38.4047 90.5743 38.7641 90.883 39.0161V39.0264Z" fill="#3B4E3B"/>
<path d="M9.89559 81.0626C9.9188 75.3367 11.0485 68.7597 13.1918 62.5283C15.3352 56.2969 18.4895 50.406 22.477 46.0213C30.4881 37.0766 42.1023 30.9742 54.5728 29.6278C56.4796 29.4088 58.3974 29.2994 60.3167 29.3002C68.3016 29.3185 76.1802 31.1317 83.3697 34.6057C83.7419 34.7594 84.1586 34.7652 84.5348 34.6217C84.911 34.4783 85.2182 34.1965 85.3935 33.8341C85.5688 33.4716 85.599 33.0559 85.4778 32.6719C85.3567 32.288 85.0935 31.9648 84.7419 31.7686C77.1251 28.0859 68.777 26.165 60.3167 26.1484C58.2768 26.1473 56.2385 26.2627 54.2117 26.4941C40.9416 27.9358 28.6517 34.3839 20.1067 43.9193C15.7401 48.7347 12.4258 54.9738 10.1716 61.525C7.91733 68.0762 6.73347 74.9369 6.7051 81.0703C6.70408 81.2776 6.74391 81.4831 6.8223 81.6749C6.90069 81.8668 7.0161 82.0414 7.16195 82.1887C7.30781 82.336 7.48125 82.4531 7.67237 82.5334C7.86349 82.6137 8.06856 82.6555 8.27585 82.6565C8.48314 82.6575 8.68859 82.6177 8.88049 82.5393C9.07239 82.4609 9.24696 82.3455 9.39426 82.1997C9.54155 82.0538 9.65869 81.8804 9.73895 81.6892C9.81922 81.4981 9.86104 81.2931 9.86206 81.0858L9.89559 81.0626Z" fill="#3B4E3B"/>
<path d="M92.4982 64.6588C95.2336 70.7329 96.6565 77.3157 96.674 83.9772C96.674 84.266 96.674 84.5549 96.674 84.8464V85.2823C96.6362 87.3695 95.7814 89.3588 94.2932 90.8228C92.805 92.2869 90.8021 93.1091 88.7145 93.1128H88.5443C86.4561 93.0756 84.4658 92.2208 83.0011 90.732C81.5365 89.2432 80.7142 87.2392 80.7112 85.1507C80.7112 85.094 80.7112 85.0372 80.7112 84.9805V84.9573C80.7184 84.5403 80.7589 84.1246 80.8324 83.7141C81.1601 81.8717 81.3241 80.004 81.3225 78.1327C81.306 71.1068 79.095 64.2617 74.9982 58.5538C72.2897 54.7538 68.8486 51.5337 64.8774 49.0829C60.7842 46.5397 56.2244 44.8394 51.4654 44.0818H51.4887C49.5281 43.7563 47.5439 43.5932 45.5565 43.5944C37.394 43.6193 29.4509 46.2387 22.8748 51.0741C20.6452 52.7188 18.6495 54.6589 16.9426 56.8412C14.2141 60.3344 11.9785 64.186 10.2986 68.2878C8.60371 72.306 7.41085 76.5178 6.74698 80.8279L8.30999 81.0575H9.88847V80.8898C9.88847 75.8191 10.9537 69.8972 12.9835 64.3364C13.9844 61.5752 15.2453 58.9153 16.7492 56.3924C18.1511 54.014 19.847 51.8216 21.7967 49.867C25.6332 46.0553 30.1838 43.0376 35.188 40.9868C40.3219 38.8557 45.8243 37.7533 51.3829 37.7421H51.9117C57.7155 37.7852 63.4521 38.9875 68.7849 41.2782C74.2683 43.6065 79.2321 47.0051 83.3859 51.2753C84.7126 52.618 85.9507 54.0456 87.0922 55.549C87.346 55.8822 87.7217 56.1009 88.1367 56.157C88.5517 56.2131 88.972 56.102 89.3051 55.8482C89.6383 55.5944 89.8569 55.2187 89.9131 54.8037C89.9692 54.3887 89.8581 53.9684 89.6043 53.6353C88.3794 52.0237 87.0518 50.4927 85.6298 49.052L84.5078 50.1636L85.6427 49.0649C81.1951 44.4932 75.8806 40.8544 70.01 38.3611C64.2886 35.9034 58.1333 34.6152 51.9065 34.5723V36.1507L51.9271 34.5723H51.3726C45.3999 34.5826 39.4874 35.7656 33.9706 38.0542C28.5819 40.2655 23.6817 43.5171 19.5502 47.6231C17.41 49.7637 15.5485 52.1658 14.0101 54.7727C11.6202 58.8205 9.79197 63.1746 8.57564 67.7152C7.37911 71.9992 6.74957 76.4215 6.70312 80.8692C6.70312 80.9311 6.70312 80.9904 6.70312 81.0523C6.70708 81.449 6.86023 81.8296 7.13209 82.1184C7.40395 82.4073 7.77458 82.5832 8.17026 82.6112C8.56594 82.6391 8.95764 82.5171 9.26742 82.2693C9.5772 82.0216 9.78235 81.6663 9.84204 81.2741C10.6963 75.8297 12.4279 70.5599 14.9695 65.6699C16.2146 63.2413 17.6926 60.9393 19.3826 58.7963C20.9089 56.8396 22.6937 55.0991 24.688 53.6224C30.7398 49.18 38.0492 46.7806 45.5565 46.7719C47.3709 46.7703 49.1825 46.9178 50.9728 47.213C55.3172 47.9048 59.4797 49.4568 63.2164 51.7782C66.829 54.0064 69.9597 56.9344 72.4242 60.3902C76.1332 65.5635 78.1365 71.7647 78.1552 78.1301C78.1566 79.8154 78.009 81.4976 77.7141 83.157C77.6121 83.7371 77.5561 84.3244 77.5465 84.9134H79.1275L77.5491 84.8799C77.5491 84.9598 77.5491 85.0372 77.5491 85.1172C77.552 88.0328 78.6986 90.8309 80.7426 92.9101C82.7866 94.9892 85.5647 96.1835 88.4798 96.2362H88.7094C91.6241 96.2326 94.4211 95.086 96.4997 93.0427C98.5782 90.9993 99.7724 88.2223 99.8258 85.308V84.8722C99.8258 84.5627 99.8258 84.2531 99.8258 83.9436C99.8099 76.8358 98.2928 69.8115 95.3741 63.3305C95.2918 63.1376 95.172 62.963 95.0216 62.817C94.8712 62.6709 94.6932 62.5562 94.4979 62.4797C94.3027 62.4032 94.0942 62.3664 93.8846 62.3713C93.6749 62.3763 93.4684 62.423 93.277 62.5086C93.0856 62.5943 92.9132 62.7172 92.7699 62.8703C92.6266 63.0233 92.5151 63.2034 92.4421 63.4C92.3692 63.5965 92.3361 63.8057 92.3448 64.0152C92.3536 64.2247 92.404 64.4303 92.4931 64.6201L92.4982 64.6588Z" fill="#3B4E3B"/>
</g>
<path d="M138.421 70.002H136.843C136.842 85.4652 131.48 100.45 121.67 112.403C111.86 124.355 98.2087 132.537 83.0425 135.553C67.8764 138.569 52.1335 136.234 38.4964 128.944C24.8593 121.654 14.1717 109.862 8.25447 95.5756C2.33728 81.2894 1.55667 65.3934 6.04564 50.5962C10.5346 35.7989 20.0154 23.0159 32.8727 14.4252C45.7299 5.83444 61.1681 1.96754 76.5568 3.4833C91.9455 4.99906 106.333 11.8037 117.267 22.7379C123.482 28.938 128.412 36.3053 131.771 44.4165C135.131 52.5276 136.854 61.2227 136.843 70.002H140C140 53.8071 134.385 38.1129 124.112 25.5938C113.838 13.0747 99.5413 4.50519 83.6576 1.3454C67.7739 -1.81438 51.286 0.63108 37.0032 8.26512C22.7204 15.8992 11.5264 28.2494 5.32873 43.2115C-0.868974 58.1737 -1.68699 74.8219 3.01406 90.3196C7.71511 105.817 17.6444 119.205 31.11 128.203C44.5756 137.2 60.7444 141.25 76.8613 139.663C92.9783 138.076 108.046 130.949 119.498 119.497C126.007 113.005 131.17 105.29 134.688 96.7955C138.206 88.3015 140.012 79.1959 140 70.002H138.421Z" fill="#3B4E3B"/>
<path d="M70.0029 254.42C107.79 254.42 138.422 223.788 138.422 186.001C138.422 148.214 107.79 117.582 70.0029 117.582C32.2162 117.582 1.58398 148.214 1.58398 186.001C1.58398 223.788 32.2162 254.42 70.0029 254.42Z" fill="#FFE7D6"/>
<mask id="mask3_3041_18009" style="mask-type:luminance" maskUnits="userSpaceOnUse" x="1" y="117" width="138" height="138">
<path d="M70.0029 254.42C107.79 254.42 138.422 223.788 138.422 186.001C138.422 148.214 107.79 117.582 70.0029 117.582C32.2162 117.582 1.58398 148.214 1.58398 186.001C1.58398 223.788 32.2162 254.42 70.0029 254.42Z" fill="white"/>
</mask>
<g mask="url(#mask3_3041_18009)">
<path d="M77.3242 254.25V151.136C77.3242 142.199 84.1488 134.887 92.49 134.887C100.831 134.887 107.656 142.194 107.656 151.136V254.25H77.3242Z" fill="#FFF9F5"/>
<path d="M36.1973 254.59V177.874C36.1973 158.7 50.8369 143.016 68.7289 143.016C86.621 143.016 101.255 158.7 101.255 177.874V254.59H36.1973Z" fill="#FFF9F5"/>
<path d="M62.8262 254.25V187.216C62.8262 173.363 73.401 162.027 86.3306 162.027C99.2602 162.027 109.832 173.376 109.832 187.216V254.25H62.8262Z" fill="#FFF9F5"/>
<path d="M25.6621 254.25V182.95C25.6621 174.65 32.0018 167.854 39.7498 167.854C47.4978 167.854 53.8375 174.65 53.8375 182.95V254.25H25.6621Z" fill="#FFF9F5"/>
<path d="M5.42969 254.589V214.096C5.42969 197.994 17.7222 184.824 32.7436 184.824C47.765 184.824 60.0524 197.994 60.0524 214.096V254.589H5.42969Z" fill="#FFF9F5"/>
<path d="M71.8164 254.591V209.032C71.8164 190.539 85.9376 175.406 103.198 175.406C120.458 175.406 134.577 190.539 134.577 209.032V254.591H71.8164Z" fill="#FFF9F5"/>
<path d="M89.8242 254.59V218.244C89.8242 208.368 97.3659 200.287 106.589 200.287C115.812 200.287 123.323 208.368 123.323 218.244V254.59H89.8242Z" fill="#FFF9F5"/>
<path d="M20.7891 254.59V218.002C20.7891 209.617 27.1907 202.756 35.016 202.756C42.8414 202.756 49.2378 209.617 49.2378 218.002V254.59H20.7891Z" fill="#FFF9F5"/>
<path d="M9.85547 254.25V222.946C9.85547 214.644 16.1952 207.848 23.9432 207.848C31.6911 207.848 38.0308 214.644 38.0308 222.946V254.243L9.85547 254.25Z" fill="#FFF9F5"/>
<path d="M78.4023 254.25V222.946C78.4023 214.644 84.7421 207.848 92.49 207.848C100.238 207.848 106.578 214.644 106.578 222.946V254.243L78.4023 254.25Z" fill="#FFF9F5"/>
<path d="M94.3436 159.257C94.5666 159.611 94.9212 159.863 95.3294 159.955C95.7376 160.048 96.1661 159.975 96.5204 159.752C96.8747 159.529 97.126 159.175 97.2189 158.766C97.3117 158.358 97.2386 157.93 97.0156 157.575C96.1423 156.189 95.1754 154.863 94.1217 153.608C93.8519 153.288 93.4658 153.088 93.0483 153.052C92.6309 153.016 92.2163 153.148 91.8959 153.418C91.5754 153.687 91.3752 154.074 91.3394 154.491C91.3036 154.908 91.4352 155.323 91.705 155.643C92.6665 156.786 93.5481 157.993 94.3436 159.257ZM55.4154 188.013C55.4154 187.594 55.2491 187.193 54.9531 186.896C54.6571 186.6 54.2556 186.434 53.8369 186.434C53.4183 186.434 53.0168 186.6 52.7208 186.896C52.4248 187.193 52.2584 187.594 52.2584 188.013V191.389C49.8604 189.023 47.0671 187.095 44.005 185.691C38.7602 183.293 32.8862 182.633 27.24 183.809V182.95C27.2216 179.4 28.5497 175.975 30.9567 173.365C32.0805 172.151 33.4329 171.172 34.9364 170.482C35.793 170.091 36.6937 169.807 37.6188 169.633C37.7343 169.626 37.8486 169.605 37.9593 169.571C38.5566 169.478 39.1602 169.432 39.7647 169.432C41.22 169.431 42.6624 169.705 44.0153 170.242C46.0366 171.054 47.8135 172.375 49.1737 174.077C50.6081 175.859 51.5824 177.966 52.0108 180.213C52.0394 180.426 52.1112 180.631 52.2217 180.815C52.3322 180.999 52.4791 181.159 52.6535 181.284C52.8279 181.41 53.0261 181.498 53.2359 181.545C53.4457 181.591 53.6627 181.594 53.8737 181.553C54.0846 181.512 54.2851 181.429 54.4627 181.308C54.6404 181.188 54.7915 181.032 54.9069 180.851C55.0222 180.669 55.0994 180.467 55.1336 180.255C55.1678 180.042 55.1584 179.826 55.1059 179.617C54.4125 175.951 52.5296 172.616 49.7489 170.128C48.3986 168.922 46.8474 167.962 45.1656 167.291C43.4414 166.609 41.6036 166.259 39.7492 166.26H39.7286C41.7445 160.426 45.3315 155.262 50.0945 151.336C55.3045 147.091 61.7525 144.584 68.7242 144.581C72.2717 144.581 75.7888 145.237 79.0978 146.516C82.3527 147.782 85.366 149.597 88.0064 151.883C88.1634 152.018 88.3455 152.122 88.5424 152.187C88.7393 152.252 88.9471 152.278 89.1539 152.262C89.3607 152.247 89.5625 152.191 89.7477 152.098C89.933 152.005 90.0981 151.876 90.2336 151.719C90.369 151.562 90.4723 151.38 90.5374 151.183C90.6025 150.986 90.6281 150.778 90.6129 150.572C90.5977 150.365 90.5419 150.163 90.4487 149.978C90.3555 149.793 90.2268 149.627 90.0698 149.492C87.2949 147.091 84.1463 145.16 80.7485 143.774C81.4117 142.544 82.2472 141.415 83.2297 140.421C83.3755 140.274 83.4909 140.099 83.5692 139.907C83.6475 139.715 83.6873 139.51 83.6862 139.302C83.6851 139.095 83.6432 138.89 83.5629 138.699C83.4826 138.508 83.3654 138.334 83.2181 138.189C83.0708 138.043 82.8961 137.927 82.7042 137.849C82.5123 137.771 82.3068 137.731 82.0995 137.732C81.8922 137.733 81.6872 137.775 81.4961 137.855C81.305 137.936 81.1316 138.053 80.9858 138.2C79.6727 139.531 78.5769 141.061 77.7385 142.732C74.8119 141.873 71.7769 141.438 68.7268 141.442C60.9891 141.442 53.824 144.238 48.093 148.907C42.4751 153.536 38.3591 159.73 36.2673 166.703C35.3577 166.923 34.4708 167.227 33.6184 167.614C30.7859 168.926 28.3966 171.035 26.7422 173.683C24.9971 176.458 24.0751 179.671 24.0831 182.95V184.665C23.1998 184.965 22.332 185.309 21.4832 185.696C16.2475 188.122 11.8324 192.021 8.77799 196.916C5.54317 202.061 3.8349 208.019 3.85169 214.096V254.412C3.86817 254.82 4.04182 255.206 4.33628 255.488C4.63074 255.771 5.02318 255.929 5.43145 255.929C5.83972 255.929 6.23217 255.771 6.52663 255.488C6.82109 255.206 6.99474 254.82 7.01122 254.412V214.091C6.97071 206.831 9.68519 199.826 14.607 194.489C16.9201 191.994 19.7018 189.978 22.7935 188.557C23.8257 188.088 24.8892 187.692 25.9762 187.37C26.0563 187.354 26.1348 187.331 26.2109 187.301C31.6802 185.747 37.524 186.192 42.6947 188.557C46.563 190.345 49.9375 193.049 52.5267 196.434C52.5582 196.481 52.5926 196.525 52.6299 196.568C53.1251 197.218 53.5996 197.891 54.0381 198.59C56.9541 203.23 58.4933 208.603 58.4769 214.083V254.412C58.4769 254.831 58.6432 255.232 58.9393 255.528C59.2353 255.824 59.6368 255.991 60.0554 255.991C60.4741 255.991 60.8756 255.824 61.1716 255.528C61.4676 255.232 61.6339 254.831 61.6339 254.412V214.091C61.6578 207.233 59.4778 200.549 55.4154 195.023V188.013ZM126.512 184.206C123.551 181.014 119.991 178.437 116.035 176.62C113.86 175.63 111.579 174.893 109.236 174.425V151.135C109.257 146.484 107.513 141.999 104.356 138.585C102.852 136.965 101.044 135.658 99.0351 134.736C95.8554 133.285 92.2835 132.931 88.8808 133.73C88.6772 133.776 88.4847 133.862 88.3145 133.983C88.1443 134.104 87.9997 134.257 87.8892 134.434C87.7786 134.611 87.7043 134.808 87.6704 135.014C87.6366 135.22 87.6439 135.431 87.692 135.634C87.7401 135.837 87.828 136.029 87.9506 136.197C88.0732 136.366 88.2281 136.509 88.4063 136.618C88.5844 136.727 88.7824 136.799 88.9887 136.83C89.195 136.862 89.4055 136.853 89.6081 136.802C92.3288 136.168 95.1832 136.452 97.7249 137.612C100.196 138.759 102.28 140.6 103.722 142.912C105.27 145.375 106.086 148.226 106.076 151.135V170.763C104.286 168.312 102.081 166.194 99.5613 164.503C96.2116 162.236 92.3354 160.868 88.3047 160.531C84.274 160.193 80.2243 160.898 76.5444 162.576C71.9995 164.683 68.1664 168.067 65.513 172.316C62.7074 176.778 61.2254 181.945 61.2393 187.216V206.01C61.2558 206.418 61.4294 206.804 61.7239 207.087C62.0183 207.37 62.4108 207.528 62.8191 207.528C63.2273 207.528 63.6198 207.37 63.9142 207.087C64.2087 206.804 64.3823 206.418 64.3988 206.01V187.216C64.3645 181.026 66.68 175.054 70.8778 170.505C72.8494 168.379 75.22 166.662 77.8546 165.452C80.5128 164.236 83.4016 163.606 86.3248 163.606C90.4179 163.615 94.4158 164.841 97.81 167.129C100.434 168.896 102.667 171.183 104.369 173.85C103.98 173.835 103.595 173.824 103.193 173.824C100.922 173.824 98.6585 174.075 96.443 174.572C96.2398 174.618 96.0475 174.703 95.8772 174.823C95.7069 174.943 95.5619 175.095 95.4504 175.271C95.3389 175.447 95.2631 175.643 95.2274 175.848C95.1918 176.053 95.1968 176.264 95.2424 176.467C95.288 176.67 95.3731 176.862 95.493 177.033C95.6128 177.203 95.765 177.348 95.941 177.459C96.1169 177.571 96.313 177.647 96.5182 177.682C96.7234 177.718 96.9336 177.713 97.1368 177.667C103.042 176.344 109.218 176.99 114.722 179.506C120.136 182.017 124.701 186.05 127.86 191.113C131.233 196.481 133.013 202.696 132.993 209.036V254.43C133.01 254.838 133.183 255.224 133.478 255.507C133.772 255.789 134.165 255.947 134.573 255.947C134.981 255.947 135.374 255.789 135.668 255.507C135.963 255.224 136.136 254.838 136.153 254.43V209.036C136.198 199.837 132.752 190.964 126.512 184.206ZM90.3329 180.131C90.6951 179.933 90.9653 179.6 91.0856 179.206C91.2059 178.811 91.1667 178.384 90.9764 178.018C90.7862 177.652 90.46 177.374 90.0678 177.246C89.6755 177.117 89.2485 177.147 88.8782 177.33C83.2944 180.269 78.6356 184.701 75.4198 190.13C72.012 195.842 70.2209 202.372 70.2382 209.023V254.417C70.2382 254.836 70.4045 255.237 70.7005 255.533C70.9965 255.829 71.398 255.996 71.8167 255.996C72.2353 255.996 72.6368 255.829 72.9328 255.533C73.2288 255.237 73.3951 254.836 73.3951 254.417V209.023C73.376 202.94 75.0121 196.966 78.128 191.742C81.0466 186.819 85.2708 182.8 90.3329 180.131ZM113.737 200.248C111.488 199.226 109.047 198.698 106.577 198.701C102.583 198.715 98.7141 200.095 95.6125 202.611C95.2855 202.873 95.0759 203.253 95.0297 203.67C94.9835 204.086 95.1046 204.503 95.3662 204.83C95.6279 205.157 96.0087 205.367 96.4249 205.413C96.8411 205.459 97.2586 205.338 97.5856 205.077C100.127 203.009 103.3 201.873 106.577 201.858C108.595 201.858 110.59 202.293 112.426 203.132C115.191 204.415 117.522 206.477 119.132 209.064C120.858 211.815 121.769 214.997 121.761 218.244V254.412C121.761 254.831 121.927 255.232 122.223 255.528C122.519 255.824 122.92 255.991 123.339 255.991C123.758 255.991 124.159 255.824 124.455 255.528C124.751 255.232 124.918 254.831 124.918 254.412V218.244C124.941 213.146 123.031 208.229 119.573 204.484C117.924 202.708 115.94 201.275 113.737 200.266V200.248ZM41.191 202.503C39.4084 201.686 37.4817 201.232 35.5222 201.165C33.5628 201.098 31.6095 201.42 29.7754 202.113C29.3838 202.262 29.0672 202.56 28.8952 202.941C28.7233 203.323 28.7101 203.758 28.8585 204.15C29.0069 204.541 29.3049 204.858 29.6867 205.03C30.0686 205.202 30.5032 205.215 30.8948 205.066C32.3389 204.522 33.8764 204.27 35.4187 204.323C36.961 204.376 38.4775 204.734 39.8808 205.376C42.1822 206.446 44.1224 208.164 45.4648 210.318C46.9065 212.614 47.6675 215.272 47.6597 217.983V254.412C47.6597 254.831 47.826 255.232 48.122 255.528C48.418 255.824 48.8195 255.991 49.2382 255.991C49.6568 255.991 50.0583 255.824 50.3543 255.528C50.6504 255.232 50.8167 254.831 50.8167 254.412V217.993C50.8318 213.606 49.184 209.376 46.205 206.155C44.7881 204.626 43.0845 203.392 41.191 202.521V202.503ZM30.0694 207.591C28.1468 206.713 26.0577 206.258 23.9438 206.258C21.8299 206.258 19.7408 206.713 17.8182 207.591C14.9818 208.904 12.5896 211.015 10.9342 213.666C9.1861 216.444 8.26387 219.663 8.27504 222.946V254.412C8.27504 254.831 8.44135 255.232 8.73737 255.528C9.03339 255.824 9.43488 255.991 9.85352 255.991C10.2722 255.991 10.6737 255.824 10.9697 255.528C11.2657 255.232 11.432 254.831 11.432 254.412V222.946C11.4128 219.396 12.74 215.971 15.1461 213.361C16.2704 212.15 17.6217 211.172 19.1232 210.483C20.6344 209.791 22.2767 209.433 23.9386 209.433C25.6005 209.433 27.2429 209.791 28.754 210.483C31.0328 211.545 32.9526 213.248 34.2787 215.383C35.7049 217.655 36.4571 220.284 36.4478 222.966V254.433C36.4643 254.841 36.638 255.226 36.9324 255.509C37.2269 255.792 37.6193 255.95 38.0276 255.95C38.4359 255.95 38.8283 255.792 39.1228 255.509C39.4172 255.226 39.5909 254.841 39.6074 254.433V222.946C39.6245 218.596 37.9933 214.401 35.0422 211.205C33.6366 209.692 31.9469 208.47 30.0694 207.61V207.591ZM98.6173 207.591C96.6952 206.713 94.6064 206.258 92.493 206.258C90.3795 206.258 88.2907 206.713 86.3686 207.591C83.5316 208.904 81.1385 211.015 79.4821 213.666C77.7352 216.445 76.813 219.663 76.8229 222.946V254.412C76.8229 254.831 76.9892 255.232 77.2852 255.528C77.5813 255.824 77.9828 255.991 78.4014 255.991C78.82 255.991 79.2215 255.824 79.5176 255.528C79.8136 255.232 79.9799 254.831 79.9799 254.412V222.946C79.9604 219.395 81.2887 215.97 83.6965 213.361C84.8202 212.147 86.1727 211.166 87.6763 210.475C89.1874 209.783 90.8298 209.425 92.4917 209.425C94.1535 209.425 95.7959 209.783 97.3071 210.475C99.5851 211.537 101.504 213.24 102.829 215.376C104.257 217.642 105.013 220.267 105.011 222.946V254.412C105.011 254.831 105.177 255.232 105.474 255.528C105.77 255.824 106.171 255.991 106.59 255.991C107.008 255.991 107.41 255.824 107.706 255.528C108.002 255.232 108.168 254.831 108.168 254.412V222.946C108.187 218.596 106.558 214.401 103.608 211.205C102.197 209.69 100.501 208.469 98.6173 207.61V207.591Z" fill="#3B4E3B"/>
</g>
<path d="M138.421 186.002H136.84C136.84 201.465 131.478 216.45 121.667 228.403C111.857 240.355 98.2061 248.537 83.0399 251.553C67.8738 254.569 52.131 252.234 38.4939 244.944C24.8568 237.654 14.1691 225.862 8.25189 211.576C2.3347 197.289 1.55409 181.393 6.04306 166.596C10.532 151.799 20.0128 139.016 32.8701 130.425C45.7274 121.834 61.1656 117.968 76.5543 119.483C91.943 120.999 106.33 127.804 117.264 138.738C123.481 144.937 128.411 152.305 131.77 160.416C135.13 168.527 136.853 177.223 136.84 186.002H140C140 169.807 134.385 154.113 124.112 141.594C113.838 129.075 99.5414 120.505 83.6576 117.345C67.7739 114.186 51.286 116.631 37.0032 124.265C22.7204 131.899 11.5264 144.249 5.32874 159.212C-0.868969 174.174 -1.68699 190.822 3.01406 206.32C7.71511 221.817 17.6444 235.205 31.11 244.203C44.5756 253.2 60.7444 257.25 76.8613 255.663C92.9783 254.076 108.046 246.949 119.498 235.497C126.007 229.004 131.169 221.289 134.687 212.795C138.206 204.301 140.011 195.196 140 186.002H138.421Z" fill="#3B4E3B"/>
</svg>
